<?xml version="1.0" encoding="UTF-8"?>
<svg version="1.1" xmlns="http://www.w3.org/2000/svg" width="250" height="250">
<path d="M0 0 C0.59022949 0.32178223 1.18045898 0.64356445 1.78857422 0.97509766 C10.58818274 5.82497207 18.43959512 11.35425359 26 18 C26.85207031 18.71929688 27.70414063 19.43859375 28.58203125 20.1796875 C42.45420127 32.15535501 51.58345568 45.55918608 54 64 C54.13857865 66.5184005 54.21946084 69.04047452 54.25 71.5625 C54.28867187 73.48255859 54.28867187 73.48255859 54.328125 75.44140625 C53.97762818 79.24262768 53.47613509 81.10938142 51 84 C48.3125 84.8125 48.3125 84.8125 46 85 C45.82991412 88.16649251 45.66456601 91.3332162 45.5 94.5 C45.45230469 95.386875 45.40460938 96.27375 45.35546875 97.1875 C45.14696632 101.23840442 44.97705477 105.26366789 45.02734375 109.3203125 C44.95625384 118.88698378 41.91401639 124.95631048 35.44921875 131.90625 C30.00762897 136.55807157 25.87461587 137.35558358 19 137 C19 137.66 19 138.32 19 139 C19.66 139.185625 20.32 139.37125 21 139.5625 C40.03755982 148.68466408 56.49391866 176.01698955 63.83203125 195.171875 C65.42921 199.72588209 66.76778241 204.3334089 68 209 C68.18618896 209.62447021 68.37237793 210.24894043 68.56420898 210.89233398 C70.09146912 216.28191028 70.26937098 221.35734646 70.1875 226.9375 C70.1865332 228.23010742 70.1865332 228.23010742 70.18554688 229.54882812 C70.14079241 235.85920759 70.14079241 235.85920759 69 237 C67.48071962 237.07179964 65.95832518 237.08392007 64.4375 237.0625 C63.61121094 237.05347656 62.78492188 237.04445312 61.93359375 237.03515625 C61.29550781 237.02355469 60.65742188 237.01195312 60 237 C59.82460693 236.23558594 59.64921387 235.47117188 59.46850586 234.68359375 C54.52874962 213.21609496 54.52874962 213.21609496 46 193 C45.66242676 192.34676758 45.32485352 191.69353516 44.97705078 191.02050781 C37.63856677 176.9615174 28.8137654 164.59647604 18 153 C15.97709402 150.68512821 13.9881025 148.34494141 12 146 C11.443125 146.37511719 10.88625 146.75023437 10.3125 147.13671875 C8.70635144 148.213815 7.0952993 149.28362062 5.48046875 150.34765625 C4.00692845 151.32924294 2.54557036 152.33023769 1.11328125 153.37109375 C-9.99191129 161.10377662 -23.71673075 162.46295129 -36.828125 160.59765625 C-50.82209759 157.39244995 -63.48841249 149.64678602 -73 139 C-73.33 138.01 -73.66 137.02 -74 136 C-74.99 136.515625 -75.98 137.03125 -77 137.5625 C-81.23704409 139.36003386 -84.61197005 139.29849866 -89 138 C-95.45085354 134.71132957 -99.16034112 129.64303799 -101.75 123 C-104.09072285 115.29016147 -104.42569407 106.60155264 -103.5625 98.625 C-104.16026683 93.67207481 -106.61108171 91.63357679 -110.15234375 88.2734375 C-112.48560575 85.40248933 -112.91657484 83.68924598 -113 80 C-111.85546875 76.9296875 -111.85546875 76.9296875 -110.1875 73.875 C-109.64480469 72.86179687 -109.10210937 71.84859375 -108.54296875 70.8046875 C-108.03378906 69.87914063 -107.52460937 68.95359375 -107 68 C-106.32632051 66.67019619 -105.65640073 65.33841709 -105 64 C-105.94875 63.71125 -106.8975 63.4225 -107.875 63.125 C-111 62 -111 62 -113 60 C-114.09414964 54.52925182 -111.62005283 50.89958208 -108.7578125 46.453125 C-103.14488915 38.61997863 -95.5150631 33.03346853 -86.78515625 28.96875 C-83.91837031 27.41303246 -82.7404142 24.71299861 -81 22 C-65.08466039 0.04086053 -24.39888111 -13.50596128 0 0 Z M-35 7.5 C-35.91555664 7.76627197 -36.83111328 8.03254395 -37.77441406 8.30688477 C-55.02714458 13.55751984 -68.83699309 21.0599215 -78 37 C-78.66 37.99 -79.32 38.98 -80 40 C-81.155 40.20625 -82.31 40.4125 -83.5 40.625 C-89.62588757 41.92647062 -93.88049345 46.51295383 -98 51 C-99.27257465 53.15379831 -99.27257465 53.15379831 -100 55 C-99.4946875 55.27972656 -98.989375 55.55945313 -98.46875 55.84765625 C-94.96229787 58.01135985 -93.24542222 59.10596191 -92.125 63.1875 C-93.21151997 67.92162275 -95.38688577 70.79634443 -98.37109375 74.5703125 C-100.12425233 77.18533561 -100.83696326 78.8615427 -101 82 C-100.12448994 83.85394692 -100.12448994 83.85394692 -98.5625 85.375 C-98.01207031 85.9628125 -97.46164063 86.550625 -96.89453125 87.15625 C-91.41499262 92.70353123 -91.41499262 92.70353123 -85 97 C-85.12117188 95.92105469 -85.24234375 94.84210938 -85.3671875 93.73046875 C-85.81888455 89.69791378 -86.26477553 85.66473378 -86.70898438 81.63134766 C-86.90142996 79.89126503 -87.09541488 78.15135188 -87.29101562 76.41162109 C-87.57313975 73.89985273 -87.84958097 71.38751137 -88.125 68.875 C-88.21249512 68.10696045 -88.29999023 67.3389209 -88.39013672 66.54760742 C-88.91806116 61.66828963 -89.24700733 56.90792829 -89 52 C-87 50 -87 50 -84.625 49.625 C-81.24836718 50.10737612 -80.15613144 51.44458496 -78 54 C-77.34 53.01 -76.68 52.02 -76 51 C-73.875 50.3125 -73.875 50.3125 -72 50 C-72.12568359 49.04287109 -72.12568359 49.04287109 -72.25390625 48.06640625 C-72.35574219 47.24011719 -72.45757812 46.41382813 -72.5625 45.5625 C-72.66691406 44.73878906 -72.77132812 43.91507813 -72.87890625 43.06640625 C-72.91886719 42.38449219 -72.95882812 41.70257813 -73 41 C-72 40 -72 40 -69.23046875 39.55078125 C-66 40 -66 40 -63.61328125 42.60546875 C-62.82824929 43.78765437 -62.06238575 44.98271396 -61.3125 46.1875 C-60.44753827 47.48370482 -59.57760345 48.77660271 -58.703125 50.06640625 C-58.25904297 50.72527832 -57.81496094 51.38415039 -57.35742188 52.06298828 C-51.93346739 59.80285426 -45.28148759 66.76415508 -38.9375 73.75 C-38.472229 74.26385254 -38.00695801 74.77770508 -37.52758789 75.30712891 C-35.05680812 78.02337351 -35.05680812 78.02337351 -32 80 C-32.13277344 79.09378906 -32.26554687 78.18757813 -32.40234375 77.25390625 C-35.26251025 57.52502051 -35.26251025 57.52502051 -34 55 C-28.14166364 54.26770795 -28.14166364 54.26770795 -25.24609375 56.125 C-24.64925781 56.62 -24.05242187 57.115 -23.4375 57.625 C-14.78674584 64.73037672 -2.11559984 69.19302158 9 70.5625 C12 71 12 71 14 73 C13.8125 75.5 13.8125 75.5 13 78 C9.22712448 80.51525034 7.49134269 80.3152621 3 80 C0.13126452 79.39507549 -2.64178007 78.56572345 -5.4375 77.6875 C-6.14970703 77.47416016 -6.86191406 77.26082031 -7.59570312 77.04101562 C-12.47762531 75.55559879 -17.23745776 73.83092097 -22 72 C-21.85522064 73.93757904 -21.70910502 75.87505824 -21.5625 77.8125 C-21.47742188 78.99328125 -21.39234375 80.1740625 -21.3046875 81.390625 C-21.11343766 83.65619998 -20.87552908 85.91882167 -20.5703125 88.171875 C-19.61900263 95.35523522 -19.61900263 95.35523522 -21.625 98.75 C-24.66527092 100.35014259 -25.75880646 100.00172417 -29 99 C-31.07714844 97.40869141 -31.07714844 97.40869141 -33.109375 95.3515625 C-33.85968994 94.59883057 -34.61000488 93.84609863 -35.38305664 93.07055664 C-36.16414795 92.26352295 -36.94523926 91.45648926 -37.75 90.625 C-38.55622803 89.80443115 -39.36245605 88.9838623 -40.19311523 88.13842773 C-45.83578418 82.34157191 -51.05281721 76.40165453 -56 70 C-57.5991874 68.03759846 -59.20339809 66.07928022 -60.8125 64.125 C-63.56383169 60.76727281 -66.29339477 57.39390049 -69 54 C-69.32613281 54.95261719 -69.65226562 55.90523437 -69.98828125 56.88671875 C-70.42939503 58.15374769 -70.87081771 59.42066913 -71.3125 60.6875 C-71.95638672 62.54955078 -71.95638672 62.54955078 -72.61328125 64.44921875 C-74 68 -74 68 -75.59936523 70.32641602 C-77.35562015 73.67882103 -77.17767657 75.58485656 -76.796875 79.328125 C-76.67763672 80.56369141 -76.55839844 81.79925781 -76.43554688 83.07226562 C-76.29181641 84.36841797 -76.14808594 85.66457031 -76 87 C-75.87173828 88.28068359 -75.74347656 89.56136719 -75.61132812 90.88085938 C-75.2679014 94.17545551 -74.89363842 97.46372187 -74.49023438 100.75146484 C-74.32932874 102.09005584 -74.1764023 103.4296288 -74.03125 104.77001953 C-72.45312907 119.30775408 -68.34727917 128.57034762 -57 138 C-46.5496808 145.4665532 -34.02405343 150.7570698 -21 149 C-11.78763517 147.0707687 -3.7234088 143.3534861 4 138 C4.56471512 137.64647461 5.12943024 137.29294922 5.71125793 136.92871094 C10.99825669 133.15129923 12.14118495 129.40984754 13.26643372 123.14266968 C13.4427684 121.98957306 13.61910309 120.83647644 13.80078125 119.6484375 C14.00809372 118.4391861 14.21540619 117.22993469 14.42900085 115.98403931 C15.08398408 112.11833782 15.69792093 108.24730659 16.3125 104.375 C16.74293793 101.82509675 17.17585748 99.27561109 17.61132812 96.7265625 C21.59558184 74.00869341 21.59558184 74.00869341 22.98168945 51.02490234 C23 48 23 48 24 47 C25.99958364 46.95919217 28.00045254 46.95745644 30 47 C34.13268055 58.03926794 31.7108799 69.93354531 30.0625 81.3125 C29.69910775 83.91274491 29.33582334 86.51300489 28.97265625 89.11328125 C28.80266113 90.30904785 28.63266602 91.50481445 28.45751953 92.73681641 C27.93170084 96.48713261 27.45269543 100.24024534 27 104 C29.475 103.505 29.475 103.505 32 103 C35.34421276 93.45111577 35.68073674 84.00725176 36 74 C39.465 73.01 39.465 73.01 43 72 C42.33894308 53.65567058 36.10471518 42.08759924 22.95068359 29.75976562 C11.20425866 19.1629908 -6.1328026 4.30270074 -22.80859375 4.77734375 C-26.99871583 5.20307808 -30.96761799 6.31898164 -35 7.5 Z M-93 105 C-91.88602791 116.43032776 -91.88602791 116.43032776 -86 126 C-83.92397851 127.20563819 -83.92397851 127.20563819 -82 128 C-81.01 127.34 -80.02 126.68 -79 126 C-79.39809111 123.91303753 -79.8192428 121.8304656 -80.25 119.75 C-80.48203125 118.58984375 -80.7140625 117.4296875 -80.953125 116.234375 C-82.52477258 111.37868769 -85.35990963 109.11389481 -89.75 106.75 C-90.8225 106.1725 -91.895 105.595 -93 105 Z M25 115 C24.34 118.63 23.68 122.26 23 126 C28.29755766 123.40119813 30.86909841 121.765969 33 116 C33 115.34 33 114.68 33 114 C29.95613276 113.91773332 27.92824652 114.02391783 25 115 Z " fill="#FFCE41" transform="translate(154,13)"/>
<path d="M0 0 C1.9375 1.125 1.9375 1.125 3 3 C3.6875 5.8125 3.6875 5.8125 3 9 C0.63622623 11.42286811 -2.1723717 13.15958474 -5 15 C-25.70553059 28.66011231 -38.42797086 51.11601103 -44 75 C-44.57090263 78.21945726 -45.08308126 81.4300488 -45.5078125 84.671875 C-46 87 -46 87 -48 89 C-54.1880525 89.56255023 -54.1880525 89.56255023 -56.69140625 87.828125 C-59.68559715 83.64519563 -58.50299603 77.85584627 -58 73 C-53.49981781 47.66303673 -37.61158965 20.81232435 -16.7890625 5.6640625 C-11.10509332 1.89449699 -7.05982159 -0.62468724 0 0 Z " fill="#FFCE41" transform="translate(85,157)"/>
<path d="M0 0 C2.84836962 0.94945654 5.09251487 2.27553571 7.625 3.875 C14.66275517 6.22091839 20.88809035 4.25200834 27.625 1.875 C28.285 1.545 28.945 1.215 29.625 0.875 C32.625 0.6875 32.625 0.6875 35.625 0.875 C37.625 2.875 37.625 2.875 38.0625 5.25 C37.625 7.875 37.625 7.875 35.75 9.9375 C26.32894554 15.77855377 17.53110273 17.01819735 6.625 15.875 C1.83471314 14.49831932 -2.41462919 11.94550986 -5.375 7.875 C-5.88099807 4.91129702 -5.79896595 3.54441993 -4.1875 1 C-2.375 -0.125 -2.375 -0.125 0 0 Z " fill="#FFCE41" transform="translate(113.375,133.125)"/>
</svg>
