<?xml version="1.0" encoding="UTF-8"?>
<svg version="1.1" xmlns="http://www.w3.org/2000/svg" width="250" height="250">
<path d="M0 0 C2.22454102 0.00315676 4.4477412 -0.02040235 6.67211914 -0.0456543 C14.26917897 -0.08069078 21.65187263 0.34727017 29.15454102 1.58520508 C29.84671219 1.69330002 30.53888336 1.80139496 31.25202942 1.9127655 C41.9213705 3.88134294 50.34855357 13.12127936 56.42407227 21.72583008 C68.92407227 40.36950228 68.92407227 40.36950228 68.92407227 47.31567383 C69.64594727 47.56704102 70.36782227 47.8184082 71.11157227 48.07739258 C77.91878364 51.07445648 83.92066705 56.89531817 88.92407227 62.31567383 C89.41520508 62.81325195 89.90633789 63.31083008 90.41235352 63.82348633 C97.12847721 70.98957365 100.20241391 80.14162218 100.0715332 89.86645508 C98.61724338 114.02114968 86.43098107 144.30156874 68.57641602 160.87426758 C68.03114258 161.34993164 67.48586914 161.8255957 66.92407227 162.31567383 C68.28404125 165.38111744 70.07264551 167.91647787 72.09790039 170.57861328 C77.01548184 177.09516876 81.10455715 183.91636391 84.92407227 191.12817383 C85.39256592 191.99885498 85.86105957 192.86953613 86.34375 193.76660156 C92.91026669 206.4453173 92.91026669 206.4453173 91.39672852 212.38525391 C89.1762056 215.296009 86.34520091 216.34377851 82.92407227 217.31567383 C80.23233554 217.62340514 77.75698238 217.80238028 75.06860352 217.82739258 C74.33318329 217.84543442 73.59776306 217.86347626 72.84005737 217.88206482 C70.47227831 217.93645549 68.10474115 217.9704401 65.73657227 218.00317383 C64.10154359 218.0352648 62.46653336 218.06830918 60.83154297 218.10229492 C56.88486118 218.18003875 52.93821661 218.23991427 48.99108887 218.28961182 C47.17021425 218.31257034 45.34938408 218.33899751 43.52856445 218.3659668 C35.11256214 218.48100159 26.70699647 218.41361235 18.29907227 218.00317383 C17.11055664 217.94516602 15.92204102 217.8871582 14.69750977 217.82739258 C13.78227539 217.65852539 12.86704102 217.4896582 11.92407227 217.31567383 C9.34103965 213.44112491 10.02150372 212.01019151 10.79907227 207.50317383 C11.92702457 200.94320912 11.92702457 200.94320912 11.92407227 194.31567383 C9.5456465 191.91160999 9.5456465 191.91160999 6.92407227 190.31567383 C-0.29572866 193.33637215 -5.68573482 200.62996756 -10.70092773 206.44067383 C-13.1674515 209.28532034 -15.63823431 212.11945348 -18.20092773 214.87817383 C-18.82225586 215.56008789 -19.44358398 216.24200195 -20.08374023 216.94458008 C-22.07592773 218.31567383 -22.07592773 218.31567383 -24.49780273 218.28051758 C-27.65206093 217.10006034 -29.6467999 215.51146134 -32.20092773 213.31567383 C-33.64725586 212.08977539 -33.64725586 212.08977539 -35.12280273 210.83911133 C-36.58459961 209.59000977 -36.58459961 209.59000977 -38.07592773 208.31567383 C-39.86411753 206.85307928 -41.65574016 205.39467078 -43.45092773 203.94067383 C-48.59937396 199.72830873 -53.68335196 195.44397765 -58.75170898 191.13598633 C-60.95001466 189.2675879 -63.15573209 187.40863238 -65.36889648 185.55786133 C-87.10693649 167.35164584 -87.10693649 167.35164584 -91.07592773 161.31567383 C-91.20874023 159.30786133 -91.20874023 159.30786133 -90.07592773 157.31567383 C-88.06591859 155.55036145 -86.11172946 153.99535337 -83.95092773 152.44067383 C-82.76533277 151.55358662 -81.58043163 150.66557133 -80.39624023 149.77661133 C-79.2898905 148.95573099 -78.18315857 148.13536533 -77.07592773 147.31567383 C-72.14581706 143.7229807 -72.14581706 143.7229807 -68.95092773 138.62817383 C-69.07508068 135.33812064 -69.69358995 132.76611283 -70.58374023 129.60864258 C-70.8610498 128.61759521 -71.13835937 127.62654785 -71.42407227 126.60546875 C-71.63918457 125.84983643 -71.85429688 125.0942041 -72.07592773 124.31567383 C-72.74011719 124.19039307 -73.40430664 124.0651123 -74.08862305 123.93603516 C-104.76088092 118.07128241 -104.76088092 118.07128241 -109.86889648 112.28442383 C-112.79900063 105.07769518 -110.93133966 96.84912679 -109.45092773 89.44067383 C-109.27271484 88.53792725 -109.09450195 87.63518066 -108.91088867 86.70507812 C-105.17667358 68.54105981 -100.0327675 46.30610765 -87.07592773 32.31567383 C-86.20967773 31.32567383 -85.34342773 30.33567383 -84.45092773 29.31567383 C-82.07592773 27.31567383 -82.07592773 27.31567383 -78.07592773 27.31567383 C-77.8297168 26.73301758 -77.58350586 26.15036133 -77.32983398 25.55004883 C-71.34497689 14.88544367 -55.19840899 9.0154522 -44.02514648 5.77270508 C-29.45973018 1.88100362 -15.06261486 -0.0444422 0 0 Z M-69.07592773 31.31567383 C-69.57092773 32.20254883 -70.06592773 33.08942383 -70.57592773 34.00317383 C-72.07592773 36.31567383 -72.07592773 36.31567383 -74.88842773 37.06567383 C-80.49407779 39.26396797 -82.54977696 43.87590395 -84.92407227 49.22729492 C-91.9063786 65.99496635 -99.51376869 86.96335417 -99.07592773 105.31567383 C-86.70913012 109.30683785 -86.70913012 109.30683785 -74.07592773 112.31567383 C-73.74592773 111.65567383 -73.41592773 110.99567383 -73.07592773 110.31567383 C-68.05789775 111.48503376 -63.91622866 112.73404602 -60.07592773 116.31567383 C-55.80820275 123.47659465 -53.12035977 131.99964989 -54.07592773 140.31567383 C-55.98217773 142.81958008 -55.98217773 142.81958008 -58.57592773 144.87817383 C-59.4847168 145.62454102 -60.39350586 146.3709082 -61.32983398 147.13989258 C-62.23604492 147.85790039 -63.14225586 148.5759082 -64.07592773 149.31567383 C-65.56253386 150.59877127 -67.04252912 151.88959963 -68.51342773 153.19067383 C-69.13088867 153.7243457 -69.74834961 154.25801758 -70.38452148 154.80786133 C-72.01018113 156.25706369 -73.55268635 157.75982483 -75.07592773 159.31567383 C-73.49242676 163.67288892 -70.09662634 166.13862194 -66.63842773 169.00317383 C-66.01822754 169.52556641 -65.39802734 170.04795898 -64.7590332 170.58618164 C-62.87166655 172.17131817 -60.97576158 173.74550971 -59.07592773 175.31567383 C-58.50374512 175.7889209 -57.9315625 176.26216797 -57.34204102 176.74975586 C-54.26636223 179.28790176 -51.17742413 181.80915837 -48.07592773 184.31567383 C-43.43936876 182.40650249 -40.76812042 178.88608047 -37.48999023 175.21411133 C-35.07592773 173.31567383 -35.07592773 173.31567383 -31.84936523 172.97973633 C-29.07592773 173.31567383 -29.07592773 173.31567383 -28.07592773 174.31567383 C-27.9226516 176.54112544 -27.85389699 178.77262542 -27.82592773 181.00317383 C-27.80014648 182.22391602 -27.77436523 183.4446582 -27.74780273 184.70239258 C-28.10203636 188.60317953 -29.25721832 190.89362849 -31.07592773 194.31567383 C-31.07592773 195.63567383 -31.07592773 196.95567383 -31.07592773 198.31567383 C-27.63656465 201.99871038 -27.63656465 201.99871038 -23.07592773 203.31567383 C-21.59573419 201.86913803 -21.59573419 201.86913803 -20.05249023 199.94458008 C-15.71387816 194.84991261 -11.12841415 190.03663454 -6.45092773 185.25317383 C-5.61819336 184.37467773 -4.78545898 183.49618164 -3.92749023 182.59106445 C-3.11795898 181.76670898 -2.30842773 180.94235352 -1.47436523 180.09301758 C-0.74910645 179.34270264 -0.02384766 178.5923877 0.72338867 177.81933594 C2.92407227 176.31567383 2.92407227 176.31567383 5.51538086 176.45703125 C8.82926901 177.63835546 11.16668707 179.51712274 13.92407227 181.69067383 C18.19899333 185.03902694 18.19899333 185.03902694 22.77563477 187.94067383 C23.48461914 188.39442383 24.19360352 188.84817383 24.92407227 189.31567383 C25.29907227 191.94067383 25.29907227 191.94067383 24.92407227 194.31567383 C24.59407227 194.64567383 24.26407227 194.97567383 23.92407227 195.31567383 C23.69043346 197.16459329 23.51103592 199.02055414 23.36157227 200.87817383 C23.23588867 202.39604492 23.23588867 202.39604492 23.10766602 203.94458008 C23.04708008 204.72704102 22.98649414 205.50950195 22.92407227 206.31567383 C25.8984808 207.80287809 28.91317581 207.46133765 32.17407227 207.44067383 C33.31815552 207.43668579 33.31815552 207.43668579 34.48535156 207.43261719 C42.57177433 207.37093645 50.65424942 207.12984975 58.73657227 206.87817383 C60.05367187 206.83901855 61.37077148 206.79986328 62.7277832 206.75952148 C63.97462891 206.71746582 65.22147461 206.67541016 66.50610352 206.63208008 C67.62218994 206.59542236 68.73827637 206.55876465 69.88818359 206.52099609 C72.65620082 206.33379043 75.22340851 205.93358771 77.92407227 205.31567383 C76.51438856 200.68284396 74.63559602 196.45259326 72.36157227 192.19067383 C72.01441162 191.53977783 71.66725098 190.88888184 71.30957031 190.21826172 C67.06244924 182.47017379 61.74671446 175.61952826 56.04907227 168.87817383 C53.92407227 166.31567383 53.92407227 166.31567383 52.42407227 163.75317383 C50.62283949 160.82617057 48.41262211 158.66970746 45.92407227 156.31567383 C45.58375977 156.76297852 45.24344727 157.2102832 44.89282227 157.67114258 C39.22388183 164.74224115 32.4237841 169.38714357 23.29907227 170.69067383 C20.92407227 170.31567383 20.92407227 170.31567383 18.54907227 168.56567383 C16.92407227 166.31567383 16.92407227 166.31567383 17.00219727 164.29614258 C17.92407227 162.31567383 17.92407227 162.31567383 20.18188477 161.22583008 C21.60114258 160.80624023 21.60114258 160.80624023 23.04907227 160.37817383 C30.9451468 157.74614898 35.72952972 154.530287 39.92407227 147.31567383 C39.59407227 146.65567383 39.26407227 145.99567383 38.92407227 145.31567383 C38.52188477 145.81067383 38.11969727 146.30567383 37.70532227 146.81567383 C34.94352553 149.1413974 32.52552198 148.40378981 29.08032227 148.12817383 C26.84255446 148.13066327 26.84255446 148.13066327 25.14672852 149.65551758 C23.48443892 151.91262006 23.8537147 153.57172875 23.92407227 156.31567383 C23.26407227 156.97567383 22.60407227 157.63567383 21.92407227 158.31567383 C16.35589045 157.74749201 16.35589045 157.74749201 14.92407227 156.31567383 C14.38346102 151.52993496 14.22072666 147.56606602 16.61157227 143.31567383 C20.98285861 139.53510185 25.27219531 138.98060053 30.92407227 138.31567383 C30.9846582 137.46102539 31.04524414 136.60637695 31.10766602 135.72583008 C31.19145508 134.62110352 31.27524414 133.51637695 31.36157227 132.37817383 C31.48338867 130.72495117 31.48338867 130.72495117 31.60766602 129.03833008 C31.92407227 126.31567383 31.92407227 126.31567383 32.92407227 125.31567383 C37.45895599 125.08311569 37.45895599 125.08311569 39.92407227 126.31567383 C38.08987587 121.64681028 34.81263331 119.33259131 30.48657227 117.00317383 C26.03987666 115.81015793 23.0056115 116.79743628 18.92407227 118.75317383 C13.60431748 123.29713104 10.49511403 129.29004854 8.29907227 135.87817383 C6.92407227 139.31567383 6.92407227 139.31567383 5.02563477 140.21801758 C2.92407227 140.31567383 2.92407227 140.31567383 1.17407227 139.19458008 C-0.97449363 135.96501696 -0.17042707 133.00618435 0.29516602 129.29614258 C2.14366533 120.53586321 6.61053221 114.36917559 13.92407227 109.31567383 C20.09741987 105.83615063 25.68008189 105.16531197 32.47485352 107.00708008 C39.85524634 109.68373241 46.37130099 113.84236113 50.14672852 120.97192383 C51.9854941 126.51594067 52.35758552 132.52409222 52.92407227 138.31567383 C53.75938477 137.78973633 53.75938477 137.78973633 54.61157227 137.25317383 C56.92407227 136.31567383 56.92407227 136.31567383 61.92407227 137.31567383 C62.91407227 140.61567383 63.90407227 143.91567383 64.92407227 147.31567383 C68.62553123 144.0666154 70.68614493 140.37534438 72.79907227 136.00317383 C73.14494385 135.29604248 73.49081543 134.58891113 73.84716797 133.86035156 C78.61445998 123.97243096 82.58155602 113.89143897 85.73657227 103.37817383 C85.9437085 102.69247314 86.15084473 102.00677246 86.36425781 101.30029297 C89.12378357 91.71695887 89.41244042 84.16099901 84.78344727 75.07739258 C79.71145888 66.55452601 73.19578926 61.71530339 63.92407227 58.31567383 C56.71634646 56.83173028 49.24122899 57.21388958 41.92407227 57.31567383 C42.33399414 57.85836914 42.74391602 58.40106445 43.16625977 58.96020508 C43.70508789 59.67563477 44.24391602 60.39106445 44.79907227 61.12817383 C45.33274414 61.83586914 45.86641602 62.54356445 46.41625977 63.27270508 C49.37304834 67.2789238 50.35061666 69.30377715 49.92407227 74.31567383 C47.32318605 76.91656004 46.10270114 76.61529607 42.47875977 76.72973633 C41.40239258 76.7684082 40.32602539 76.80708008 39.21704102 76.84692383 C38.08911133 76.87786133 36.96118164 76.90879883 35.79907227 76.94067383 C34.6634082 76.9793457 33.52774414 77.01801758 32.35766602 77.05786133 C29.54663271 77.15234984 26.73560994 77.23790924 23.92407227 77.31567383 C24.14063477 78.32887695 24.14063477 78.32887695 24.36157227 79.36254883 C24.54719727 80.25458008 24.73282227 81.14661133 24.92407227 82.06567383 C25.20250977 83.38825195 25.20250977 83.38825195 25.48657227 84.73754883 C25.92407227 87.31567383 25.92407227 87.31567383 25.92407227 91.31567383 C23.73657227 91.81567383 23.73657227 91.81567383 20.92407227 91.31567383 C17.04779181 86.70923528 14.79338475 81.78839707 14.67407227 75.75317383 C14.64829102 74.96813477 14.62250977 74.1830957 14.59594727 73.37426758 C14.70422852 72.69493164 14.81250977 72.0155957 14.92407227 71.31567383 C17.92005665 69.3183509 18.94899734 69.00460704 22.37329102 68.68286133 C23.22084961 68.59907227 24.0684082 68.5152832 24.94165039 68.42895508 C25.82272461 68.35032227 26.70379883 68.27168945 27.61157227 68.19067383 C28.50424805 68.10430664 29.39692383 68.01793945 30.31665039 67.92895508 C32.51852377 67.71701005 34.72083836 67.51288371 36.92407227 67.31567383 C35.97576829 66.19010445 35.02471419 65.0668517 34.07250977 63.94458008 C33.27852783 63.00594116 33.27852783 63.00594116 32.46850586 62.04833984 C30.8673146 60.17796848 30.8673146 60.17796848 28.54907227 58.25317383 C26.92407227 56.31567383 26.92407227 56.31567383 26.48657227 53.19067383 C26.70313477 51.76754883 26.70313477 51.76754883 26.92407227 50.31567383 C32.91649992 46.32072206 40.39190578 47.18794297 47.36157227 47.25317383 C48.28389648 47.25768555 49.2062207 47.26219727 50.15649414 47.2668457 C52.41242274 47.27853445 54.66821193 47.29491927 56.92407227 47.31567383 C53.2592023 35.62218177 45.98638664 20.99264238 34.75683594 15.12207031 C6.51787044 2.69722643 -45.83893906 10.23088092 -69.07592773 31.31567383 Z M39.92407227 126.31567383 C40.25407227 131.59567383 40.58407227 136.87567383 40.92407227 142.31567383 C42.92762051 138.30857734 43.14864081 137.37437023 42.67407227 133.19067383 C42.58641602 132.3218457 42.49875977 131.45301758 42.40844727 130.55786133 C42.09487185 128.12523836 42.09487185 128.12523836 39.92407227 126.31567383 Z M39.92407227 143.31567383 C40.92407227 145.31567383 40.92407227 145.31567383 40.92407227 145.31567383 Z " fill="#FFCE41" transform="translate(131.075927734375,15.684326171875)"/>
<path d="M0 0 C1.97265625 0.99609375 1.97265625 0.99609375 4.0625 2.4375 C16.64898489 10.3838927 31.15509709 15.65083297 45 21 C44.89300781 19.87980469 44.78601563 18.75960937 44.67578125 17.60546875 C44.5538473 16.13288183 44.43279968 14.66022133 44.3125 13.1875 C44.23966797 12.44951172 44.16683594 11.71152344 44.09179688 10.95117188 C43.67353255 5.5137356 43.67353255 5.5137356 45.2734375 2.99609375 C47 2 47 2 50.3125 1.875 C55.32554269 3.40440286 57.01996251 5.84736631 60 10 C60.64839844 10.84046875 61.29679687 11.6809375 61.96484375 12.546875 C67.08107459 19.39553252 67.08107459 19.39553252 66.69140625 22.30078125 C66.46324219 22.86152344 66.23507813 23.42226562 66 24 C61.8252101 24.34789916 60.20321755 23.60774762 57 21 C57.02320312 21.84304687 57.04640625 22.68609375 57.0703125 23.5546875 C57.08835937 24.65039062 57.10640625 25.74609375 57.125 26.875 C57.14820312 27.96554688 57.17140625 29.05609375 57.1953125 30.1796875 C57 33 57 33 55 35 C50.25742563 35.47952885 46.92249984 34.43556916 42.578125 32.59375 C41.38832031 32.09746094 40.19851562 31.60117188 38.97265625 31.08984375 C37.73153074 30.56045838 36.49064779 30.03050397 35.25 29.5 C32.79890887 28.46380233 30.34507557 27.43450187 27.890625 26.40625 C26.80813477 25.94541016 25.72564453 25.48457031 24.61035156 25.00976562 C22.15559121 23.87974042 22.15559121 23.87974042 20 24 C20.7425 24.8353125 20.7425 24.8353125 21.5 25.6875 C23.24754367 28.38162983 23.26218749 29.85375007 23 33 C20.92578125 33.83984375 20.92578125 33.83984375 18 34 C15.48063791 32.26925543 13.41049821 30.61788402 11.1875 28.5625 C10.5702002 28.01062012 9.95290039 27.45874023 9.31689453 26.89013672 C7.52710609 25.27796446 5.75993521 23.64464881 4 22 C3.15824219 21.21753906 2.31648438 20.43507813 1.44921875 19.62890625 C-7.51707203 10.96655753 -7.51707203 10.96655753 -8.4375 5.3125 C-8 3 -8 3 -6.8125 1.1875 C-4.37025283 -0.41259298 -2.88679661 -0.24768373 0 0 Z " fill="#FFCE41" transform="translate(67,103)"/>
</svg>
