<?xml version="1.0" encoding="UTF-8"?>
<svg version="1.1" xmlns="http://www.w3.org/2000/svg" width="250" height="250">
<path d="M0 0 C4.21084013 2.04180306 6.24752977 5.25627224 8.83984375 9.06640625 C9.39462402 9.85829346 9.9494043 10.65018066 10.52099609 11.46606445 C31.8699138 42.53469179 31.8699138 42.53469179 30.71484375 54.31640625 C28.71484375 56.31640625 28.71484375 56.31640625 26.140625 56.828125 C21.04317194 56.06670385 17.90472503 53.24410982 13.90234375 50.12890625 C4.70046831 41.97872747 4.70046831 41.97872747 -6.30444336 38.49291992 C-8.2921362 39.16272166 -10.01386106 39.98823514 -11.84765625 41.00390625 C-12.47478516 41.31263672 -13.10191406 41.62136719 -13.74804688 41.93945312 C-15.27747126 42.69832782 -16.78408712 43.5028823 -18.28515625 44.31640625 C-17.80046875 44.72890625 -17.31578125 45.14140625 -16.81640625 45.56640625 C-9.74536315 51.65838184 -3.21145094 58.10031244 2.86328125 65.1875 C5.63350216 68.37266961 8.52367444 71.44768752 11.40625 74.53125 C13.29741729 76.81281054 14.78528552 78.98282753 16.34765625 81.48046875 C20.15940926 87.30654805 25.0428954 91.93381964 30.02734375 96.75390625 C31.83798307 98.52134435 33.64668329 100.29077188 35.453125 102.0625 C36.24759033 102.83263428 37.04205566 103.60276855 37.8605957 104.39624023 C39.71484375 106.31640625 39.71484375 106.31640625 40.71484375 108.31640625 C45.39937153 107.80817107 48.26923248 106.62262499 52.12109375 103.9375 C53.11238281 103.26396484 54.10367188 102.59042969 55.125 101.89648438 C57.18672668 100.4668294 59.24662263 99.03453071 61.3046875 97.59960938 C62.29597656 96.92736328 63.28726563 96.25511719 64.30859375 95.5625 C65.20255859 94.94044678 66.09652344 94.31839355 67.01757812 93.67749023 C70.1898299 92.07672053 72.20558653 91.90357054 75.71484375 92.31640625 C77.71484375 94.31640625 77.71484375 94.31640625 78.03222656 97.08886719 C77.66324891 100.84108611 76.63815657 102.77840483 74.63671875 105.95703125 C73.97599365 107.01929932 73.31526855 108.08156738 72.63452148 109.17602539 C71.911844 110.30650312 71.18860644 111.43662299 70.46484375 112.56640625 C69.7310025 113.73180587 68.99801728 114.89774495 68.26586914 116.06420898 C66.10400139 119.49588262 63.91325879 122.90802268 61.71484375 126.31640625 C60.81258057 127.71560303 60.81258057 127.71560303 59.89208984 129.14306641 C43.87121742 153.84367271 43.87121742 153.84367271 36.71484375 158.31640625 C32.74013976 158.77502594 30.64677809 157.99780345 27.43359375 155.6484375 C19.99054256 149.18287563 12.20632223 141.55362398 6.71484375 133.31640625 C3.11016692 133.91364976 0.17541992 134.90218442 -3.109375 136.48828125 C-9.64095967 139.53336013 -16.31193685 142.16888999 -23.0300293 144.765625 C-25.11442289 145.57289988 -27.19490059 146.38975683 -29.27539062 147.20703125 C-30.61826327 147.72844781 -31.96135457 148.24930168 -33.3046875 148.76953125 C-34.50198486 149.23520508 -35.69928223 149.70087891 -36.93286133 150.18066406 C-40.06972655 151.24341965 -43.00848537 151.88080654 -46.28515625 152.31640625 C-45.98222656 153.06736572 -45.67929688 153.8183252 -45.3671875 154.59204102 C-43.99405729 158.01615246 -42.63948934 161.44731903 -41.28515625 164.87890625 C-40.80820313 166.06033203 -40.33125 167.24175781 -39.83984375 168.45898438 C-39.16308594 170.1847168 -39.16308594 170.1847168 -38.47265625 171.9453125 C-38.05371094 172.9979126 -37.63476562 174.0505127 -37.203125 175.13500977 C-36.17984293 178.68138973 -36.05389263 181.64311242 -36.28515625 185.31640625 C-37.28515625 186.31640625 -37.28515625 186.31640625 -41.22265625 186.87890625 C-47.8706192 186.79475482 -51.62500287 182.62579539 -56.28515625 178.31640625 C-57.13464844 177.56101563 -57.98414062 176.805625 -58.859375 176.02734375 C-60.55799786 174.51341036 -62.24817416 172.98994573 -63.9296875 171.45703125 C-65.96257459 169.60956504 -68.01897041 167.79933301 -70.09765625 166.00390625 C-72.59493976 163.84162419 -75.02781739 161.62654867 -77.42578125 159.35546875 C-77.98934326 158.82477783 -78.55290527 158.29408691 -79.13354492 157.74731445 C-80.24599551 156.69697477 -81.35327074 155.64111619 -82.4543457 154.57885742 C-86.13006434 151.11605978 -89.81713858 148.67718734 -94.28515625 146.31640625 C-94.72265625 143.69140625 -94.72265625 143.69140625 -94.28515625 140.31640625 C-89.85585701 134.99700859 -83.54401682 132.17244019 -77.34765625 129.44140625 C-76.40776855 129.01939941 -75.46788086 128.59739258 -74.49951172 128.16259766 C-63.70167411 123.43599034 -52.53214724 119.80869026 -41.28515625 116.31640625 C-45.81507421 110.8790757 -50.62809841 105.85181694 -55.66015625 100.87890625 C-56.39621094 100.14736328 -57.13226563 99.41582031 -57.890625 98.66210938 C-59.68651699 96.87787902 -61.4847161 95.09604501 -63.28515625 93.31640625 C-66.43208391 100.41896924 -68.92462689 107.6222209 -69.84765625 115.37890625 C-70.28515625 118.31640625 -70.28515625 118.31640625 -72.28515625 120.31640625 C-79.23440178 122.89020089 -86.26205927 120.77503256 -93.03515625 118.75390625 C-94.40800781 118.34954346 -94.40800781 118.34954346 -95.80859375 117.93701172 C-127.99705762 108.2771473 -127.99705762 108.2771473 -136.28515625 100.31640625 C-136.89982407 96.2028601 -136.61581243 94.81239051 -134.28515625 91.31640625 C-127.34497789 89.99908968 -120.83701749 90.48093653 -113.84765625 91.19140625 C-112.38875977 91.32869141 -112.38875977 91.32869141 -110.90039062 91.46875 C-108.02755432 91.74125685 -105.15631175 92.02676997 -102.28515625 92.31640625 C-100.82505127 92.46190918 -100.82505127 92.46190918 -99.33544922 92.61035156 C-96.98523759 92.84458642 -94.635146 93.07995766 -92.28515625 93.31640625 C-91.81876752 90.42168684 -91.36254834 87.52582173 -90.91015625 84.62890625 C-90.69238525 83.29013428 -90.69238525 83.29013428 -90.47021484 81.92431641 C-89.72818893 77.14986686 -89.1986179 72.49760154 -89.09765625 67.6640625 C-88.70428107 53.27467847 -88.70428107 53.27467847 -84.796875 49.16015625 C-82.12898818 46.90767992 -79.21097519 45.15601164 -76.17773438 43.44091797 C-73.54293776 41.87540285 -71.15601568 40.03975594 -68.72241211 38.18188477 C-56.19141301 28.63717663 -42.98664194 20.900179 -28.98730469 13.72558594 C-26.02615368 12.18133552 -23.09695131 10.58485037 -20.16796875 8.98046875 C-18.62290649 8.1447937 -18.62290649 8.1447937 -17.04663086 7.29223633 C-15.03300874 6.20266381 -13.02569389 5.10133423 -11.02563477 3.98706055 C-7.2685315 1.97492521 -4.26790267 0.4110584 0 0 Z M-9.265625 14.625 C-10.75255859 15.3677417 -10.75255859 15.3677417 -12.26953125 16.12548828 C-13.3265625 16.66286621 -14.38359375 17.20024414 -15.47265625 17.75390625 C-16.55675781 18.30159668 -17.64085937 18.84928711 -18.7578125 19.41357422 C-27.40927912 23.8125162 -35.93790347 28.36442564 -44.28515625 33.31640625 C-44.94418945 33.70505859 -45.60322266 34.09371094 -46.28222656 34.49414062 C-57.8530305 41.36689935 -70.44183718 49.0291319 -79.28515625 59.31640625 C-80.2042201 62.57424071 -80.2042201 62.57424071 -80.359375 66.1640625 C-80.41414505 66.81660507 -80.4689151 67.46914764 -80.52534485 68.14146423 C-80.69583209 70.21959396 -80.83549972 72.29833602 -80.97265625 74.37890625 C-81.17654176 77.09963431 -81.3925002 79.81934303 -81.609375 82.5390625 C-81.71169434 83.84633301 -81.81401367 85.15360352 -81.91943359 86.50048828 C-82.4297958 91.82556257 -83.2893339 97.06271343 -84.28515625 102.31640625 C-87.76508562 103.08563121 -89.87081036 103.33076532 -93.28515625 102.31640625 C-99.95758172 101.46527796 -106.56529333 101.20624456 -113.28515625 101.31640625 C-110.27887879 103.32059122 -107.91498463 104.17708282 -104.48046875 105.2265625 C-103.33964844 105.57654297 -102.19882813 105.92652344 -101.0234375 106.28710938 C-99.23486328 106.82754883 -99.23486328 106.82754883 -97.41015625 107.37890625 C-96.22550781 107.74306641 -95.04085937 108.10722656 -93.8203125 108.48242188 C-86.62357306 110.67973792 -86.62357306 110.67973792 -79.28515625 112.31640625 C-79.13481934 111.77338867 -78.98448242 111.23037109 -78.82958984 110.67089844 C-75.84494295 100.00918928 -72.81935481 89.97181651 -67.28515625 80.31640625 C-62.72881501 79.94117815 -62.72881501 79.94117815 -60.765625 81.6015625 C-60.33894531 82.18808594 -59.91226563 82.77460938 -59.47265625 83.37890625 C-57.39953348 86.01077999 -55.35595055 88.23018266 -52.78515625 90.37890625 C-27.31960551 112.06633096 -27.31960551 112.06633096 -26.28515625 121.31640625 C-26.61515625 121.97640625 -26.94515625 122.63640625 -27.28515625 123.31640625 C-28.28675781 123.26226562 -29.28835937 123.208125 -30.3203125 123.15234375 C-34.56019289 123.32778708 -37.85414164 124.35761939 -41.72265625 125.94140625 C-43.13650933 126.49792816 -44.55057809 127.05390239 -45.96484375 127.609375 C-47.03943848 128.03742432 -47.03943848 128.03742432 -48.13574219 128.47412109 C-50.19886875 129.282593 -52.27155364 130.05162947 -54.35546875 130.8046875 C-63.58893395 134.14758658 -72.45282439 138.02714164 -81.28515625 142.31640625 C-76.99020199 147.57772521 -72.45207758 151.93043944 -67.28515625 156.31640625 C-66.02467196 157.41379328 -64.76569101 158.51290831 -63.5078125 159.61328125 C-62.14193156 160.80599471 -60.7760461 161.998703 -59.41015625 163.19140625 C-58.74314697 163.7755127 -58.0761377 164.35961914 -57.38891602 164.96142578 C-56.75912842 165.50911621 -56.12934082 166.05680664 -55.48046875 166.62109375 C-54.91344238 167.11593262 -54.34641602 167.61077148 -53.76220703 168.12060547 C-52.27880187 169.40925622 -52.27880187 169.40925622 -50.28515625 170.31640625 C-50.95553943 166.23316327 -52.24427531 162.65069138 -53.78515625 158.81640625 C-55.32603719 154.98212112 -56.61477307 151.39964923 -57.28515625 147.31640625 C-52.19113002 145.05760778 -47.06051385 143.16500338 -41.78515625 141.37890625 C-33.04330913 138.35644555 -24.36729868 135.16499221 -15.72363281 131.87350464 C-14.30702922 131.33571015 -12.88888769 130.80194932 -11.46923828 130.27224731 C-9.46203655 129.52204216 -7.46103282 128.75719869 -5.4609375 127.98828125 C-3.7116394 127.3245752 -3.7116394 127.3245752 -1.92700195 126.64746094 C1.02961222 125.54699637 1.02961222 125.54699637 1.71484375 122.31640625 C4.83984375 121.4453125 4.83984375 121.4453125 8.71484375 121.31640625 C11.14342071 123.27103899 12.78597735 124.88589115 14.71484375 127.25390625 C15.23393311 127.85275635 15.75302246 128.45160645 16.2878418 129.06860352 C17.78452391 130.8012964 19.25210199 132.55504971 20.71484375 134.31640625 C21.98141633 135.79922293 23.25136006 137.27918017 24.52734375 138.75390625 C25.05070313 139.36105469 25.5740625 139.96820313 26.11328125 140.59375 C28.7623165 143.44307816 31.70346721 145.85813968 34.71484375 148.31640625 C39.50433774 142.99233827 43.43396109 137.41333391 47.27734375 131.37890625 C47.82841797 130.52361328 48.37949219 129.66832031 48.94726562 128.78710938 C50.02884228 127.10508447 51.10534599 125.41978462 52.17626953 123.73095703 C53.19194098 122.13702009 54.22136751 120.5517548 55.26513672 118.97607422 C55.96533936 117.90510498 55.96533936 117.90510498 56.6796875 116.8125 C57.30605103 115.8697522 57.30605103 115.8697522 57.94506836 114.90795898 C58.19909424 114.38274658 58.45312012 113.85753418 58.71484375 113.31640625 C58.38484375 112.65640625 58.05484375 111.99640625 57.71484375 111.31640625 C57.12316406 111.72632813 56.53148437 112.13625 55.921875 112.55859375 C55.13167969 113.09742188 54.34148437 113.63625 53.52734375 114.19140625 C52.75003906 114.72507812 51.97273437 115.25875 51.171875 115.80859375 C47.03044391 118.35007611 43.61958941 119.84150417 38.71484375 119.31640625 C36.60595703 117.79101563 36.60595703 117.79101563 34.53515625 115.66015625 C33.77074219 114.88414062 33.00632813 114.108125 32.21875 113.30859375 C31.43371094 112.48617187 30.64867187 111.66375 29.83984375 110.81640625 C29.06253906 110.02492188 28.28523437 109.2334375 27.484375 108.41796875 C22.71743434 103.53085311 18.17003159 98.48704111 13.71484375 93.31640625 C12.57065039 92.02328663 11.42499249 90.7314602 10.27734375 89.44140625 C7.79759881 86.61755573 5.4576288 83.72134764 3.15234375 80.75390625 C-3.99441427 71.74398563 -12.06894358 63.41439005 -20.28515625 55.37890625 C-23.98038583 51.71821152 -27.77536665 47.91276603 -30.28515625 43.31640625 C-30.28515625 41.99640625 -30.28515625 40.67640625 -30.28515625 39.31640625 C-23.85257932 35.83059641 -17.34842924 32.74830451 -10.47265625 30.25390625 C-9.26996094 29.80917969 -8.06726563 29.36445312 -6.828125 28.90625 C-0.68837598 27.88408671 3.74211158 31.10451475 8.65234375 34.50390625 C9.42449219 35.03371094 10.19664062 35.56351563 10.9921875 36.109375 C11.56066406 36.50769531 12.12914062 36.90601562 12.71484375 37.31640625 C13.04484375 36.65640625 13.37484375 35.99640625 13.71484375 35.31640625 C12.43666981 32.85629735 11.11165827 30.54113553 9.65234375 28.19140625 C9.23839355 27.51650146 8.82444336 26.84159668 8.39794922 26.14624023 C4.11295584 18.79446599 4.11295584 18.79446599 -1.28515625 12.31640625 C-4.71106967 12.31640625 -6.22430243 13.09923351 -9.265625 14.625 Z " fill="#FFCE41" transform="translate(156.28515625,51.68359375)"/>
<path d="M0 0 C6.45651995 4.76264589 10.51374741 10.83484459 12.29296875 18.69140625 C13.55720252 29.52692058 12.96809681 39.35193261 6.33984375 48.33984375 C-0.3320386 56.2947804 -7.47956093 60.90565746 -17.70703125 62.69140625 C-26.57740545 63.3954042 -33.85210809 61.10391367 -40.79296875 55.4765625 C-49.15791767 47.67496728 -53.69719363 38.87152999 -54.17749023 27.41357422 C-54.3134496 17.18628386 -52.69345755 7.82520008 -45.41796875 0.125 C-32.95322524 -10.3192029 -12.93487645 -8.32243989 0 0 Z M-38.20703125 13.69140625 C-42.12526938 19.62946855 -44.14521566 25.49266236 -43.70703125 32.69140625 C-42.47460015 36.32549796 -40.74426599 39.45035099 -38.70703125 42.69140625 C-37.87171875 44.08359375 -37.87171875 44.08359375 -37.01953125 45.50390625 C-32.82518011 49.47153571 -27.96921027 52.35273728 -22.1484375 52.95703125 C-15.0473418 52.55821776 -8.83353607 49.94511362 -3.8828125 44.79296875 C1.78893034 37.62432525 3.28554896 30.73770686 2.29296875 21.69140625 C0.54051092 14.9754002 -2.90724559 10.45170684 -8.70703125 6.69140625 C-19.11381905 1.60364332 -31.15683255 4.65620015 -38.20703125 13.69140625 Z " fill="#FFCE41" transform="translate(94.70703125,26.30859375)"/>
</svg>
