<?xml version="1.0" encoding="UTF-8"?>
<svg version="1.1" xmlns="http://www.w3.org/2000/svg" width="250" height="250">
<path d="M0 0 C1.80225583 1.84378246 3.50230259 3.68221031 5.1875 5.625 C10.14855585 11.16327249 15.30264751 16.20829603 21 21 C22.04711493 22.00756321 23.09397654 23.01538974 24.140625 24.0234375 C27.43184815 26.99504557 30.64176085 29.83095616 35 31 C40.39829952 30.49873861 45.15489552 27.51232022 49.86962891 25.02880859 C53.1580912 23.44072928 56.51828507 22.52271369 60.0625 21.6875 C61.04319458 21.45571045 61.04319458 21.45571045 62.04370117 21.21923828 C82.03337881 16.75736671 104.26831869 14.87408126 122.3515625 25.98828125 C125.9496277 27.36276338 127.54226148 26.54592013 131 25 C140.14512826 20.64011327 147.86143257 13.62333794 154.65625 6.1875 C156 5 156 5 159.0625 4.6875 C162 5 162 5 164 7 C164.68040079 8.6329619 165.35833155 10.26699898 166.0234375 11.90625 C167.12008973 14.25747237 168.46132563 16.32511636 169.875 18.5 C177.79925526 31.67407436 180.49986599 46.19895663 177.30078125 61.30078125 C174.77915292 68.82310711 170.37429129 75.43856307 166 82 C166.39832031 82.73863281 166.79664063 83.47726563 167.20703125 84.23828125 C176.99533809 102.98134083 178.24876426 122.69228112 173 143 C169.85073165 152.31133676 166.02526667 159.56091398 158.44921875 165.890625 C156.59669719 167.48609811 154.83557405 169.09846791 153.08203125 170.796875 C129.86576409 193.19556651 98.49730288 204.47030783 66.31689453 204.23046875 C55.0260154 204.00641772 47.12225074 202.92090321 38 196 C36.54409547 195.10022477 35.08571659 194.20444199 33.625 193.3125 C15.64630475 181.20119744 6.27792904 161.50212294 0.1875 141.3125 C-0.00739014 140.67280273 -0.20228027 140.03310547 -0.40307617 139.37402344 C-3.72496855 127.69103482 -4.39055461 115.88115084 -4.375 103.8125 C-4.37844421 103.08766418 -4.38188843 102.36282837 -4.38543701 101.61602783 C-4.41105415 93.08645987 -4.04561211 85.11758549 -1.625 76.875 C0.77855747 68.57681951 -1.55409731 63.2428069 -5.16601562 55.87402344 C-11.07211574 42.6025877 -12.13113135 26.6823954 -12.3125 12.375 C-12.33022461 11.52131836 -12.34794922 10.66763672 -12.36621094 9.78808594 C-12.36053973 5.04128859 -12.10655161 1.84331324 -9 -2 C-5.24455672 -4.00290308 -3.27033483 -2.24983848 0 0 Z M-1 17 C-1.11587832 22.46457747 -0.79232508 27.61223622 0.1875 33 C0.31914551 33.72840088 0.45079102 34.45680176 0.58642578 35.20727539 C2.78560512 46.71019823 6.21729563 57.76338291 12 68 C14.78633754 66.60683123 14.93492694 64.84019484 16 62 C16.33 61.67 16.66 61.34 17 61 C23.76567506 61.08651758 27.17656713 64.02515413 32.125 68.375 C32.86564697 69.00696289 33.60629395 69.63892578 34.36938477 70.29003906 C35.87520248 71.57615365 37.37631748 72.86779573 38.87255859 74.16503906 C41.32741669 76.28240347 43.82228815 78.34667553 46.32519531 80.40673828 C47.91660696 81.73259335 49.47789743 83.08741399 51.03515625 84.453125 C53.95285488 87.02709523 53.95285488 87.02709523 57.05859375 89.234375 C63.55595938 94.46110463 63.55595938 94.46110463 64.36669922 99.09667969 C65.07170671 111.80809773 62.87794121 126.02158819 54.4375 135.8125 C51.17436361 138.50813441 47.29477682 138.33850772 43.2734375 138.2734375 C37.46477119 137.57480066 34.06690695 133.15943166 30.51831055 128.95581055 C28.13583904 125.88683173 26.29111961 122.62755462 24.5 119.1875 C24.11835693 118.45756836 23.73671387 117.72763672 23.34350586 116.97558594 C17.26785544 104.97007002 13.37246742 92.39338901 12 79 C11.01 79 10.02 79 9 79 C1.39199477 107.60609968 8.70895848 139.37001512 23 164.65625 C29.13760886 174.91756482 37.14549974 183.68351008 48 189 C48.66 189 49.32 189 50 189 C50.06469482 188.42781738 50.12938965 187.85563477 50.19604492 187.26611328 C51.38484474 177.04345532 52.70893067 166.94061443 55.4375 157 C55.72693481 155.9174292 55.72693481 155.9174292 56.0222168 154.81298828 C57.33277831 150.2984164 59.03730414 146.65980077 62 143 C65.5 142.3125 65.5 142.3125 69 143 C73.60799447 147.04944968 76.16908381 153.61182284 79 159 C79.33 159 79.66 159 80 159 C80.23074219 157.9378125 80.46148437 156.875625 80.69921875 155.78125 C84.41101042 139.40330792 84.41101042 139.40330792 89 135 C92.47059714 133.62622197 94.03022897 133.63633586 97.5 134.9375 C100.50090484 137.4132465 102.5449924 140.17904841 104.765625 143.35546875 C105.17296875 143.89816406 105.5803125 144.44085938 106 145 C106.33 145 106.66 145 107 145 C107.17015625 144.19175781 107.3403125 143.38351563 107.515625 142.55078125 C110.0785978 131.24916182 110.0785978 131.24916182 114 128 C117.35288041 126.8585939 119.19023123 126.74324405 122.5625 127.8125 C132.46948635 136.70338519 135.53282066 155.51473842 139 168 C151.74912664 159.14161501 160.55672641 149.76550718 163.4921875 134.2109375 C165.87764482 116.9732689 163.91392811 102.04913099 155.953125 86.53515625 C154.79854292 83.46415719 154.65152453 81.25824563 155 78 C156.171875 75.98046875 156.171875 75.98046875 157.75 74.1875 C164.07187033 66.34480237 167.58767974 56.36195692 167.24609375 46.21484375 C166.17617882 36.58560935 162.61824409 28.4294164 158 20 C154.21686407 22.38934901 150.84607305 24.97243045 147.4375 27.875 C139.6374754 34.15965837 130.22869132 39.32472036 120 39 C118.0625 37.3125 118.0625 37.3125 116 35 C98.30687396 25.52517819 76.63051942 28.35677831 58.15869141 33.90161133 C49.42923328 36.23754341 49.42923328 36.23754341 43 42 C41.3125 42.6875 41.3125 42.6875 39 43 C37.453125 43.2475 37.453125 43.2475 35.875 43.5 C30.04533332 42.74778494 26.52666153 39.59216771 22 36 C21.10925781 35.30132812 20.21851562 34.60265625 19.30078125 33.8828125 C13.34897355 29.11117779 7.69831153 24.06485932 2.1171875 18.87109375 C0.34603187 16.88963069 0.34603187 16.88963069 -1 17 Z M22 74 C22.3151206 90.98786514 29.35451932 113.67510897 42 126 C44.67147736 127.54451195 44.67147736 127.54451195 47 128 C50.91673677 122.51357865 53.13386115 117.69591957 54 111 C54.14179687 110.17113281 54.28359375 109.34226563 54.4296875 108.48828125 C54.82437401 104.58327689 54.83724708 102.07876066 52.375 98.90625 C50.01199869 96.77954882 47.55685407 94.88888058 45 93 C43.20149726 91.55010572 41.40998068 90.0915093 39.625 88.625 C38.71234375 87.88636719 37.7996875 87.14773437 36.859375 86.38671875 C32.81908708 83.01429263 28.96916935 79.45572842 25.1171875 75.87109375 C23.34603187 73.88963069 23.34603187 73.88963069 22 74 Z M118 141 C117.84180786 141.83978394 117.84180786 141.83978394 117.68041992 142.6965332 C117.19475423 145.23764783 116.69134943 147.77493105 116.1875 150.3125 C116.02185547 151.19357422 115.85621094 152.07464844 115.68554688 152.98242188 C115.4293457 154.25375977 115.4293457 154.25375977 115.16796875 155.55078125 C115.01610107 156.33106689 114.8642334 157.11135254 114.70776367 157.9152832 C113.87985304 160.3538927 113.061659 161.4656352 111 163 C107.00617036 163 104.82487908 162.77635679 101.875 160 C99.42585446 156.08136713 97.16877117 152.07977855 95 148 C94.34 148 93.68 148 93 148 C92.83918945 148.80219971 92.67837891 149.60439941 92.51269531 150.4309082 C91.7751165 154.06172145 91.01289285 157.68692507 90.25 161.3125 C89.99734375 162.57513672 89.7446875 163.83777344 89.484375 165.13867188 C89.2265625 166.34716797 88.96875 167.55566406 88.703125 168.80078125 C88.35749512 170.47394409 88.35749512 170.47394409 88.00488281 172.1809082 C86.86663104 175.37415241 85.94943137 176.39917118 83 178 C80.5 178 80.5 178 78 177 C74.61865804 173.23441464 72.19460185 169.08325629 69.75 164.6875 C69.38648437 164.04232422 69.02296875 163.39714844 68.6484375 162.73242188 C67.76163795 161.15718584 66.88025437 159.57890286 66 158 C60.18958229 168.53924252 59.82675877 181.27734329 60 193 C84.28340182 194.11933734 109.19767089 187.69752556 130 175 C126.6521378 163.53994349 123.18518023 152.18517196 119 141 C118.67 141 118.34 141 118 141 Z " fill="#FFCE41" transform="translate(38,31)"/>
<path d="M0 0 C4.91644534 2.57528089 6.31159473 6.42130099 8.203125 11.3671875 C12.29889845 24.89930174 11.20118203 41.45923656 4.5625 53.9375 C3.72902407 55.30449888 2.87721833 56.66065088 2 58 C1.4225 58.886875 0.845 59.77375 0.25 60.6875 C-6.03799149 67.15015792 -12.92383841 70.87054782 -21.93359375 71.0625 C-35.33057812 70.54784994 -46.05975152 65.67302858 -55.625 56.4296875 C-58.68626737 53.10751666 -59.92309389 50.49900733 -60 46 C-58.35854409 43.61524329 -56.9045476 41.87590169 -54.875 39.875 C-54.32803467 39.31296875 -53.78106934 38.7509375 -53.2175293 38.171875 C-51.49946017 36.4251673 -49.75474202 34.70979928 -48 33 C-47.48034668 32.48598633 -46.96069336 31.97197266 -46.42529297 31.44238281 C-13.12988974 -1.28724409 -13.12988974 -1.28724409 0 0 Z M-36.45507812 36.64453125 C-38.55431178 38.48633676 -40.7541638 40.19693827 -42.9375 41.9375 C-45.39997579 44.12937406 -45.95596492 44.86239038 -47 48.125 C-45.66589656 51.96054738 -43.83629169 52.98882413 -40.34765625 54.90234375 C-33.15419808 58.26567444 -24.85667212 61.42302246 -16.9375 59.0625 C-10.21846041 56.1319955 -6.36018184 50.40448502 -3.625 43.8125 C0.22962647 33.43852701 0.43440509 21.51786559 -3 11 C-12.45464087 11 -29.39304804 30.30617209 -36.45507812 36.64453125 Z " fill="#FFCE41" transform="translate(175,77)"/>
</svg>
