<?xml version="1.0" encoding="UTF-8"?>
<svg version="1.1" xmlns="http://www.w3.org/2000/svg" width="250" height="250">
<path d="M0 0 C3.3125 0.9375 3.3125 0.9375 5.3125 3.9375 C10.18433526 21.81579452 10.80174544 41.80016715 1.89453125 58.484375 C-2.3963908 65.13795289 -7.76336306 71.0315766 -14.6875 74.9375 C-14.17323774 79.43729477 -13.54320356 83.8843221 -12.75 88.34375 C-7.09130803 120.43344716 -4.48097175 157.16226528 -22.6875 185.9375 C-30.00492286 195.75692828 -38.06794007 202.30716759 -50.28637695 204.37796021 C-53.13609677 204.72248442 -55.98444595 205.0010445 -58.84375 205.25390625 C-59.90372192 205.35589828 -60.96369385 205.45789032 -62.05578613 205.56297302 C-65.43217558 205.88519753 -68.80972834 206.19264361 -72.1875 206.5 C-74.39201534 206.70935922 -76.59644346 206.91963892 -78.80078125 207.13085938 C-89.95691534 208.18995863 -101.12011999 209.16424676 -112.2890625 210.078125 C-113.8123114 210.20478294 -113.8123114 210.20478294 -115.36633301 210.33399963 C-147.71143024 212.92154651 -147.71143024 212.92154651 -156.6875 206.9375 C-158.6875 203.9375 -158.6875 203.9375 -159.55859375 200.5859375 C-160.75726869 196.71201917 -162.17702097 194.65733544 -164.75 191.5625 C-181.37942549 170.00583733 -186.10664783 145.13360868 -186 118.3125 C-185.99950653 117.62515778 -185.99901306 116.93781555 -185.99850464 116.22964478 C-185.97077105 103.53519155 -185.73700036 90.08600109 -181.6875 77.9375 C-182.29424561 77.67960693 -182.90099121 77.42171387 -183.52612305 77.15600586 C-187.83530857 74.7266435 -189.92642155 70.11016274 -191.52099609 65.55810547 C-192.22141218 63.00907501 -192.81978985 60.45949256 -193.375 57.875 C-193.58213623 56.94236328 -193.78927246 56.00972656 -194.00268555 55.04882812 C-194.58802676 52.34932841 -195.14386834 49.64566895 -195.6875 46.9375 C-195.93757813 45.72191406 -196.18765625 44.50632813 -196.4453125 43.25390625 C-197.92073239 34.43255776 -197.92032602 25.54956781 -198 16.625 C-198.01780518 15.31724609 -198.03561035 14.00949219 -198.05395508 12.66210938 C-198.05290771 11.43685547 -198.05186035 10.21160156 -198.05078125 8.94921875 C-198.05376221 7.84022217 -198.05674316 6.73122559 -198.05981445 5.58862305 C-197.93695068 4.71375244 -197.81408691 3.83888184 -197.6875 2.9375 C-194.4320165 0.76717767 -193.46525931 0.34972174 -189.6875 0.9375 C-187.4765625 2.80859375 -187.4765625 2.80859375 -185.3125 5.375 C-184.53390625 6.28636719 -183.7553125 7.19773437 -182.953125 8.13671875 C-180.94257014 10.62218053 -178.99081685 13.13812615 -177.0625 15.6875 C-174.06462931 19.62176853 -170.81419831 23.16096156 -166.6875 25.9375 C-164.34423014 26.17020005 -164.34423014 26.17020005 -162.1875 23.5 C-161.3625 22.654375 -160.5375 21.80875 -159.6875 20.9375 C-156.14179047 19.16464524 -151.97410902 19.57709811 -148.0625 19.4375 C-146.45894653 19.37767944 -146.45894653 19.37767944 -144.82299805 19.31665039 C-124.78461393 18.61958041 -104.73504262 18.24822982 -84.6875 17.9375 C-83.22917755 17.91432709 -83.22917755 17.91432709 -81.74139404 17.89068604 C-76.30245446 17.8067301 -70.863888 17.74171878 -65.42440796 17.70632935 C-63.77822343 17.69386544 -62.13206842 17.67642082 -60.48599243 17.65377808 C-58.22484491 17.62426829 -55.96444147 17.61406082 -53.703125 17.609375 C-52.43758789 17.6000293 -51.17205078 17.59068359 -49.86816406 17.58105469 C-46.45842471 17.96317162 -45.08314563 18.53021796 -42.6875 20.9375 C-41.9375 23.125 -41.9375 23.125 -41.6875 24.9375 C-29.28966356 23.31155424 -20.77744803 14.33213151 -11.6328125 6.453125 C-10.66085938 5.62296875 -9.68890625 4.7928125 -8.6875 3.9375 C-7.81222656 3.16792969 -6.93695313 2.39835937 -6.03515625 1.60546875 C-3.6875 -0.0625 -3.6875 -0.0625 0 0 Z M-7.86328125 18.5703125 C-15.75734024 25.24759624 -23.06235475 30.94525226 -32.6875 34.9375 C-31.19628972 39.89017248 -29.10958776 44.2986986 -26.75 48.875 C-24.20760778 53.83242899 -21.8275969 58.79187516 -19.6875 63.9375 C-12.83038296 61.0803679 -8.45542249 53.50014331 -5.46484375 46.94140625 C-1.76364321 37.40012044 -1.31751239 25.87248807 -3.6875 15.9375 C-5.45946217 15.9375 -6.56807194 17.45608153 -7.86328125 18.5703125 Z M-187.6875 20.9375 C-187.40483746 29.34671044 -186.37902537 37.43238156 -184.8125 45.6875 C-184.65104492 46.54947998 -184.48958984 47.41145996 -184.32324219 48.29956055 C-183.1436241 54.30358757 -181.5427948 60.10835377 -179.6875 65.9375 C-176.04611133 62.29611133 -175.10083975 56.8734006 -173.5 52.0625 C-173.11908203 50.96035156 -172.73816406 49.85820313 -172.34570312 48.72265625 C-171.99056641 47.66175781 -171.63542969 46.60085937 -171.26953125 45.5078125 C-170.94186768 44.53602051 -170.6142041 43.56422852 -170.27661133 42.56298828 C-169.66500444 39.8372442 -169.58892596 38.48658753 -170.6875 35.9375 C-172.06177573 34.99897023 -173.44412885 34.06980352 -174.8671875 33.20703125 C-178.57152727 30.62353248 -181.56542357 27.17940026 -184.6875 23.9375 C-185.68525534 22.93526037 -186.68439925 21.9343896 -187.6875 20.9375 Z M-153.6875 29.9375 C-154.72040841 31.86858963 -155.73848672 33.807618 -156.75 35.75 C-157.31847656 36.82894531 -157.88695312 37.90789063 -158.47265625 39.01953125 C-160.05665789 41.92430243 -160.05665789 41.92430243 -158.6875 44.9375 C-131.13136731 42.81109165 -103.58156582 40.6320176 -76.04663086 38.24511719 C-66.26449623 37.3988691 -56.48467355 36.59284659 -46.6875 35.9375 C-49.3715479 31.5683602 -49.3715479 31.5683602 -53.77825356 29.38405228 C-56.40813965 29.1985464 -58.98249852 29.19558574 -61.6184082 29.25634766 C-62.61400253 29.2554715 -63.60959686 29.25459534 -64.63536072 29.25369263 C-67.92047049 29.25786705 -71.20352898 29.30451465 -74.48828125 29.3515625 C-76.76798894 29.36275509 -79.04771107 29.37129498 -81.32743835 29.37728882 C-87.32341459 29.40018176 -93.31851673 29.45911059 -99.31414795 29.5255127 C-105.43392105 29.58692425 -111.55383561 29.61430153 -117.67382812 29.64453125 C-129.67876915 29.70885208 -141.68306185 29.81123845 -153.6875 29.9375 Z M-68.1875 47.1875 C-70.0175663 47.31958129 -71.84764472 47.45149466 -73.67773438 47.58325195 C-84.10254274 48.34078311 -94.52116605 49.16127614 -104.9375 50.02734375 C-106.59597961 50.16419083 -106.59597961 50.16419083 -108.28796387 50.30380249 C-113.67787191 50.74871996 -119.06697153 51.20075862 -124.45507812 51.66699219 C-133.61994616 52.44299763 -142.76885757 53.11669032 -151.96875 53.23828125 C-153.08352722 53.26573677 -153.08352722 53.26573677 -154.2208252 53.29374695 C-159.22110603 53.29481981 -159.22110603 53.29481981 -161.66992188 51.41870117 C-162.00572266 50.92990479 -162.34152344 50.4411084 -162.6875 49.9375 C-163.21940541 51.37094 -163.73765258 52.80945367 -164.25 54.25 C-164.54003906 55.05050781 -164.83007812 55.85101563 -165.12890625 56.67578125 C-165.93665625 59.0808174 -165.93665625 59.0808174 -164.6875 61.9375 C-164.3575 61.6075 -164.0275 61.2775 -163.6875 60.9375 C-159.35002353 60.42878362 -157.25324788 60.57320328 -153.5390625 62.96484375 C-152.44646354 63.91561902 -151.37179107 64.88725078 -150.3125 65.875 C-149.72525146 66.39916504 -149.13800293 66.92333008 -148.53295898 67.46337891 C-142.6973242 72.75052032 -137.1423551 78.34448919 -131.63720703 83.97241211 C-127.96273706 87.72385506 -124.26024469 91.26482463 -120.1550293 94.54443359 C-117.64071921 96.93116681 -116.32129695 99.90330566 -114.6875 102.9375 C-113.6975 103.5975 -112.7075 104.2575 -111.6875 104.9375 C-110.27132951 110.03132254 -111.66122189 114.64343832 -114.0625 119.1875 C-117.5613059 124.48522025 -121.66275156 127.08517051 -127.6875 128.9375 C-134.26608272 130.16198073 -140.28898529 128.22709437 -145.72265625 124.56640625 C-159.44285801 113.54266033 -165.17919975 95.26325952 -167.08984375 78.3828125 C-167.3315812 75.56806142 -167.53766795 72.7584759 -167.6875 69.9375 C-169.35880524 72.94506417 -170.14223312 75.6233035 -170.72265625 79.0078125 C-170.89216797 79.9875 -171.06167969 80.9671875 -171.23632812 81.9765625 C-171.40583984 82.99492188 -171.57535156 84.01328125 -171.75 85.0625 C-171.92337891 86.05765625 -172.09675781 87.0528125 -172.27539062 88.078125 C-177.04495323 116.0741783 -177.65081285 153.43289778 -161.1796875 178 C-160.44105469 178.9590625 -160.44105469 178.9590625 -159.6875 179.9375 C-159.12999557 180.79458054 -158.57249115 181.65166107 -157.99809265 182.53471375 C-155.88175482 185.20867424 -155.88175482 185.20867424 -152.67781067 185.46492004 C-150.96908028 185.39297676 -150.96908028 185.39297676 -149.22583008 185.31958008 C-147.97702057 185.27346588 -146.72821106 185.22735168 -145.44155884 185.17984009 C-144.20271942 185.09986786 -142.96388 185.01989563 -141.6875 184.9375 C-140.63758881 184.87114349 -139.58767761 184.80478699 -138.50595093 184.73641968 C-135.35348268 184.48985951 -132.21709929 184.17205839 -129.07421875 183.82421875 C-127.89099533 183.69504562 -126.70777191 183.5658725 -125.48869324 183.43278503 C-109.38500573 181.56593244 -93.45151382 178.60447266 -77.5 175.75 C-72.03604881 174.77403891 -66.57104071 173.80456419 -61.10385704 172.84686852 C-58.95521926 172.4677397 -56.80841589 172.07929575 -54.66157532 171.69013977 C-47.95814685 170.49636484 -41.50731704 169.41324724 -34.6875 169.9375 C-32.73533565 171.88966435 -31.83923355 173.46949953 -30.6875 175.9375 C-27.3317575 169.56984108 -25.05973664 163.2349707 -23.4375 156.25 C-23.27475586 155.55011963 -23.11201172 154.85023926 -22.94433594 154.12915039 C-20.96658301 145.19252053 -20.49336462 136.57242846 -20.5 127.4375 C-20.50080566 126.29289307 -20.50161133 125.14828613 -20.50244141 123.96899414 C-20.56483781 115.2867178 -20.68506802 106.42929487 -22.6875 97.9375 C-23.3475 97.6075 -24.0075 97.2775 -24.6875 96.9375 C-25.01621094 97.97197266 -25.01621094 97.97197266 -25.3515625 99.02734375 C-29.35938953 110.90419703 -35.43807048 120.05421701 -46.40625 126.546875 C-55.13313425 130.7226422 -64.2708366 131.50824573 -73.6875 129.203125 C-78.72322531 127.37467712 -82.23240923 125.12548881 -85.6875 120.9375 C-86.265 120.31875 -86.8425 119.7 -87.4375 119.0625 C-89.19155555 116.08060556 -89.43429899 113.35571359 -89.6875 109.9375 C-88.6875 107.9375 -88.6875 107.9375 -86.6875 107.25 C-86.0275 106.816875 -85.3675 106.38375 -84.6875 105.9375 C-84.64625 104.844375 -84.605 103.75125 -84.5625 102.625 C-83.6875 98.9375 -83.6875 98.9375 -81.796875 97.68359375 C-80.04991125 96.89526262 -78.29813475 96.11755276 -76.54296875 95.34765625 C-71.91790398 93.06359554 -68.26467022 89.71831919 -64.37158203 86.37255859 C-61.70997562 84.10452112 -59.00904252 81.88473111 -56.30908203 79.66259766 C-54.8160111 78.43302892 -53.32607259 77.19964618 -51.83935547 75.96240234 C-48.0744628 72.83986103 -44.27276239 69.9129888 -40.25 67.125 C-36.66535411 64.33694209 -35.13763374 61.81134172 -34.484375 57.29296875 C-34.86760796 52.8489404 -37.24408217 49.5467411 -39.6875 45.9375 C-49.22805291 45.74358632 -58.68144359 46.48487558 -68.1875 47.1875 Z M-156.6875 74.9375 C-157.1171101 87.97451416 -151.85912078 101.88198012 -143.625 112 C-140.14289629 115.69860757 -137.40346775 117.7191041 -132.25 118.375 C-127.97781307 117.85034546 -125.93718229 116.73373825 -122.6875 113.9375 C-121.51180352 111.36642722 -121.51180352 111.36642722 -120.6875 108.9375 C-121.71230469 108.02097656 -121.71230469 108.02097656 -122.7578125 107.0859375 C-131.6147907 99.0719076 -140.04386635 90.65025136 -148.43408203 82.15380859 C-149.35817871 81.22133301 -150.28227539 80.28885742 -151.234375 79.328125 C-152.06807617 78.48282227 -152.90177734 77.63751953 -153.76074219 76.76660156 C-155.36559266 74.8227519 -155.36559266 74.8227519 -156.6875 74.9375 Z M-41.0625 80.875 C-41.69591309 81.37499512 -42.32932617 81.87499023 -42.98193359 82.39013672 C-46.7930586 85.40699757 -50.56488815 88.46688495 -54.3125 91.5625 C-71.45350963 105.60300348 -71.45350963 105.60300348 -80.6875 108.9375 C-79.33102598 113.37686951 -77.51941061 115.3531882 -73.6875 117.9375 C-67.6067514 120.75491352 -61.40379347 121.14569991 -54.99609375 119.0625 C-45.18421537 114.50859003 -39.72228064 107.85108212 -35.6875 97.9375 C-33.14744162 90.68019035 -33.49457764 83.56865111 -33.6875 75.9375 C-36.15629598 75.9375 -39.10940885 79.32406088 -41.0625 80.875 Z M-44.96728516 180.70019531 C-46.51774033 180.95110931 -46.51774033 180.95110931 -48.09951782 181.20709229 C-49.21394257 181.39140808 -50.32836731 181.57572388 -51.4765625 181.765625 C-52.64843109 181.95590271 -53.82029968 182.14618042 -55.02767944 182.34222412 C-58.78990224 182.95360362 -62.55124503 183.57019664 -66.3125 184.1875 C-121.20610074 193.16559521 -121.20610074 193.16559521 -136.375 194.1875 C-137.90930664 194.30351562 -137.90930664 194.30351562 -139.47460938 194.421875 C-141.87842466 194.60244328 -144.28242854 194.77471349 -146.6875 194.9375 C-146.6875 196.2575 -146.6875 197.5775 -146.6875 198.9375 C-124.38039109 199.7683048 -102.44865648 197.55850962 -80.29473877 195.20959473 C-77.78182671 194.94734405 -75.26805521 194.69724767 -72.75341797 194.45214844 C-69.01658895 194.0874103 -65.28338322 193.69745617 -61.55157471 193.2845459 C-59.56379644 193.06940481 -57.57363878 192.87661251 -55.58349609 192.68457031 C-48.06280664 191.79954506 -43.13710253 190.29398344 -37.6875 184.9375 C-37.12393799 184.42074707 -36.56037598 183.90399414 -35.97973633 183.37158203 C-34.46436273 182.01160376 -34.46436273 182.01160376 -34.6875 179.9375 C-38.2130598 179.8600544 -41.48924683 180.13040184 -44.96728516 180.70019531 Z " fill="#FFCE41" transform="translate(222.6875,17.0625)"/>
<path d="M0 0 C3.125 0.5 3.125 0.5 5.4375 3.3125 C8.14023161 8.41765971 8.88874017 12.79259034 8.125 18.5 C5.92668636 21.53215675 4.67536806 22.31654398 1.125 23.5 C-0.43521296 23.59422245 -1.99945225 23.62990753 -3.5625 23.625 C-4.44679688 23.62371094 -5.33109375 23.62242187 -6.2421875 23.62109375 C-8.64999948 23.51034869 -10.83011977 23.1580797 -13.1875 22.6875 C-14.404375 22.625625 -15.62125 22.56375 -16.875 22.5 C-18.56211423 24.1459651 -20.2295622 25.81237149 -21.875 27.5 C-26.79697532 27.78396011 -29.67820584 26.12216009 -33.609375 23.42578125 C-34.41084961 22.87962158 -35.21232422 22.33346191 -36.03808594 21.77075195 C-36.64426758 21.35140381 -37.25044922 20.93205566 -37.875 20.5 C-38.61661377 20.94915771 -39.35822754 21.39831543 -40.12231445 21.86108398 C-42.87723822 23.52768011 -45.63374745 25.19161273 -48.39135742 26.85375977 C-49.58405675 27.57339988 -50.77612011 28.29409512 -51.9675293 29.01586914 C-53.68109865 30.05372503 -55.3971593 31.0874641 -57.11328125 32.12109375 C-58.14493408 32.7442749 -59.17658691 33.36745605 -60.23950195 34.00952148 C-64.56491918 36.45571622 -67.93241194 37.02027243 -72.875 36.5 C-75.375 34.5625 -75.375 34.5625 -76.875 31.5 C-77.65317589 23.86117141 -74.08221726 13.55793801 -69.40234375 7.63671875 C-66.9513742 5.81259563 -64.81720283 6.1869997 -61.875 6.5 C-61.215 7.16 -60.555 7.82 -59.875 8.5 C-60.23011848 13.11654025 -61.37385317 17.1442133 -62.875 21.5 C-62.18462646 21.08113525 -61.49425293 20.66227051 -60.78295898 20.23071289 C-57.63332545 18.32910217 -54.47316124 16.4457197 -51.3125 14.5625 C-50.22646484 13.90314453 -49.14042969 13.24378906 -48.02148438 12.56445312 C-46.43110352 11.62182617 -46.43110352 11.62182617 -44.80859375 10.66015625 C-43.83978271 10.07886963 -42.87097168 9.49758301 -41.87280273 8.89868164 C-38.45095133 7.30215206 -35.64059336 6.70151538 -31.875 6.5 C-30.885 7.16 -29.895 7.82 -28.875 8.5 C-28.215 7.84 -27.555 7.18 -26.875 6.5 C-21.5569761 5.86183713 -18.50903325 6.9876522 -14.0078125 9.4765625 C-10.46899406 11.17467684 -6.72031887 11.82350872 -2.875 12.5 C-3.36226562 11.60667969 -3.36226562 11.60667969 -3.859375 10.6953125 C-5.19060666 7.81780408 -5.14758467 5.63472375 -4.875 2.5 C-2.875 0.5 -2.875 0.5 0 0 Z " fill="#FFCE41" transform="translate(159.875,156.5)"/>
</svg>
