<?xml version="1.0" standalone="no"?>
<!DOCTYPE svg PUBLIC "-//W3C//DTD SVG 20010904//EN"
 "http://www.w3.org/TR/2001/REC-SVG-20010904/DTD/svg10.dtd">
<svg version="1.0" xmlns="http://www.w3.org/2000/svg"
 width="250.000000pt" height="250.000000pt" viewBox="0 0 250.000000 250.000000"
 preserveAspectRatio="xMidYMid meet">

<g transform="translate(0.000000,250.000000) scale(0.100000,-0.100000)"
fill="#000000" stroke="none">
<path d="M1803 1934 c-34 -20 -43 -31 -43 -53 0 -16 7 -34 15 -41 23 -19 18
-39 -12 -46 -56 -12 -69 -17 -99 -40 -17 -13 -34 -24 -37 -24 -3 0 -58 -25
-122 -55 -65 -30 -124 -55 -131 -55 -17 0 -445 -213 -486 -241 -14 -11 -33
-19 -41 -19 -21 0 -40 -26 -41 -56 -1 -21 -14 -34 -66 -64 -36 -21 -83 -50
-106 -63 -30 -18 -43 -33 -47 -56 -4 -17 -14 -43 -24 -57 -9 -15 -18 -34 -20
-43 -1 -8 -20 -32 -42 -53 -23 -20 -41 -42 -41 -49 0 -18 78 -106 100 -112 20
-5 78 31 114 72 11 11 23 21 27 21 4 0 14 -23 22 -50 15 -49 14 -53 -24 -183
-49 -168 -61 -202 -82 -225 -35 -39 -23 -66 59 -122 41 -28 86 -63 100 -75 14
-13 45 -30 67 -38 118 -41 209 -67 231 -67 30 0 82 30 102 59 22 31 104 197
104 210 0 27 31 71 51 71 34 0 243 51 257 62 30 25 40 67 69 278 l8 55 185 95
c468 240 482 249 486 302 3 40 -11 97 -38 155 -16 33 -18 46 -9 57 7 8 9 25 6
38 -5 21 -1 27 35 43 62 28 62 49 -1 176 -30 61 -61 111 -71 115 -9 3 -30 -2
-46 -10 -21 -11 -32 -12 -40 -4 -6 6 -21 16 -34 22 -12 6 -24 20 -26 31 -2 11
-8 24 -12 29 -10 10 -97 -11 -120 -29 -32 -25 -38 -24 -66 20 -33 53 -51 56
-111 19z m427 -519 c5 -14 19 -45 30 -69 26 -57 25 -72 -2 -90 -13 -7 -230
-118 -483 -246 -253 -127 -464 -235 -469 -240 -5 -5 -10 -33 -12 -62 -6 -82
-23 -154 -60 -250 -35 -94 -92 -208 -123 -247 -18 -24 -21 -24 -62 -12 -63 19
-203 90 -297 150 -63 41 -82 57 -76 70 7 18 61 180 97 294 l25 77 -29 118
c-16 64 -39 139 -52 166 -14 32 -18 51 -11 53 6 2 42 24 79 49 38 24 75 42 81
40 7 -3 46 -72 86 -155 89 -183 93 -186 194 -143 177 76 421 196 1004 493 68
35 68 35 80 4z m-645 -667 c-3 -45 -12 -98 -18 -117 -12 -36 -13 -36 -122 -62
-60 -14 -112 -25 -114 -23 -4 4 18 131 28 158 6 17 190 122 220 125 11 1 12
-14 6 -81z"/>
</g>
</svg>
