<?xml version="1.0" encoding="UTF-8"?>
<svg version="1.1" xmlns="http://www.w3.org/2000/svg" width="250" height="250">
<path d="M0 0 C5.57758621 0.9295977 9.46672419 4.85944873 13.625 8.4375 C14.07230469 7.99277344 14.51960938 7.54804687 14.98046875 7.08984375 C15.58503906 6.52394531 16.18960938 5.95804688 16.8125 5.375 C17.40417969 4.80652344 17.99585938 4.23804688 18.60546875 3.65234375 C20.625 2.4375 20.625 2.4375 23.08984375 2.52734375 C27.70243973 4.18332967 30.83372729 7.47909563 33.625 11.4375 C33.8125 15.25 33.8125 15.25 32.625 18.4375 C31.05078125 20.13671875 31.05078125 20.13671875 29.625 21.4375 C36.68707425 27.5430397 43.75978228 33.60123476 51.08203125 39.39453125 C55.76488265 43.15663768 60.32632119 47.06376551 64.89550781 50.96240234 C66.65488878 52.46299238 68.41723299 53.96005308 70.1796875 55.45703125 C76.60863187 60.92979966 82.93938729 66.48218364 89.16015625 72.19140625 C91.39170587 74.22491026 93.653009 76.21394161 95.9375 78.1875 C98.36244867 80.28515498 100.6472305 82.44445302 102.875 84.75 C105.15406045 86.97726363 106.70016944 88.31256517 109.625 89.4375 C109.46386719 90.60023437 109.30273438 91.76296875 109.13671875 92.9609375 C109.13858782 95.79569754 109.35877948 97.08271839 111.07666016 99.37207031 C113.14099735 101.34250325 115.26780443 103.20881569 117.4375 105.0625 C124.20313709 111.26439477 127.16665476 115.11157646 128.19140625 124.35546875 C128.86543067 129.14650721 131.18230492 132.99480492 134.625 136.4375 C135.0390625 139.71875 135.0390625 139.71875 134.625 143.4375 C132.2109375 145.90625 132.2109375 145.90625 129 147.9375 C127.95585937 148.6284375 126.91171875 149.319375 125.8359375 150.03125 C122.05935365 151.68522833 120.48895241 151.82873287 116.625 150.4375 C114.2890625 148.15234375 114.2890625 148.15234375 112.25 145.375 C111.56164062 144.45589844 110.87328125 143.53679687 110.1640625 142.58984375 C109.65617188 141.87957031 109.14828125 141.16929687 108.625 140.4375 C105.55650823 144.65263869 105.27201723 147.65306334 105.375 152.8125 C105.38740723 153.50714355 105.39981445 154.20178711 105.41259766 154.91748047 C105.46125162 157.09216534 105.53810014 159.26402716 105.625 161.4375 C105.65110352 162.13423828 105.67720703 162.83097656 105.70410156 163.54882812 C105.98050962 170.2525177 106.45820142 176.07689772 108.625 182.4375 C108.85163986 185.14811275 108.7190868 187.70898292 108.625 190.4375 C95.55607785 198.39862239 78.75349949 202.15119357 63.625 203.4375 C62.13226563 203.61345703 62.13226563 203.61345703 60.609375 203.79296875 C55.57340416 204.15759505 52.27642368 203.78243118 48.1875 200.6875 C42.54656912 194.87388756 40.58116933 187.60353141 40.53125 179.63671875 C40.34135359 171.74093055 40.34135359 171.74093055 37.625 164.4375 C32.43294395 159.9751324 26.20171487 157.46214714 19.94140625 154.84765625 C12.71988343 151.7719585 12.71988343 151.7719585 10.625 147.4375 C10.27936187 144.57280428 10.14920863 142.15740748 10.25 139.3125 C10.26216553 138.56129883 10.27433105 137.81009766 10.28686523 137.03613281 C10.42633171 131.8092204 11.04497367 126.8247976 12.28515625 121.734375 C12.70875629 118.87142304 12.59501065 117.18233364 11.625 114.4375 C9.87374796 112.50468002 8.21211225 110.8732114 6.25 109.1875 C5.71415283 108.71151367 5.17830566 108.23552734 4.6262207 107.74511719 C0.22034982 103.86303022 -4.34076686 100.17441121 -8.9140625 96.4921875 C-11.69229506 94.17258381 -14.20787187 91.69528059 -16.72265625 89.09765625 C-18.41863594 87.39365774 -20.17989696 85.82035917 -22 84.25 C-25.78590774 80.97730961 -29.4973655 77.62981146 -33.1875 74.25 C-33.75098145 73.73864502 -34.31446289 73.22729004 -34.89501953 72.70043945 C-42.11033979 66.06741962 -42.11033979 66.06741962 -42.6953125 62.46484375 C-42.02036044 55.24285674 -38.50164362 50.25101642 -34.375 44.4375 C-32.06093888 40.96640832 -32.28880385 39.48871887 -32.375 35.4375 C-32.045 34.7775 -31.715 34.1175 -31.375 33.4375 C-32.303125 33.004375 -32.303125 33.004375 -33.25 32.5625 C-35.375 31.4375 -35.375 31.4375 -37.375 29.4375 C-37.98427637 24.99085142 -37.82469364 23.06483063 -35.1796875 19.375 C-34.22032829 18.3789721 -33.24283799 17.40016006 -32.25 16.4375 C-31.23327516 15.40081711 -30.21764221 14.36306217 -29.203125 13.32421875 C-28.71263672 12.83099121 -28.22214844 12.33776367 -27.71679688 11.82958984 C-26.01675472 10.06582704 -24.51001605 8.17725732 -23 6.25 C-20.375 3.4375 -20.375 3.4375 -17.6875 2.375 C-15.375 2.4375 -15.375 2.4375 -12.375 4.4375 C-12.375 5.0975 -12.375 5.7575 -12.375 6.4375 C-6.96134004 5.21176567 -4.49047038 0.82719191 0 0 Z M-24.375 48.4375 C-27.015 52.0675 -29.655 55.6975 -32.375 59.4375 C-30.7099031 62.76769381 -29.96501278 64.0840471 -27.3984375 66.42578125 C-26.81449219 66.96340088 -26.23054688 67.50102051 -25.62890625 68.05493164 C-24.69884766 68.89399048 -24.69884766 68.89399048 -23.75 69.75 C-23.11191406 70.33322021 -22.47382812 70.91644043 -21.81640625 71.51733398 C-16.89245454 76.00567643 -11.91073332 80.41734745 -6.84472656 84.74462891 C-5.06279847 86.26684072 -3.28124821 87.78949265 -1.5 89.3125 C-0.59000244 90.09028809 -0.59000244 90.09028809 0.33837891 90.88378906 C4.75223625 94.66574043 9.09326916 98.52027837 13.3984375 102.42578125 C15.45604391 104.28484669 17.53346763 106.11678358 19.625 107.9375 C22.53093245 110.46716629 25.39647402 113.03637789 28.25 115.625 C33.09680036 120.01056039 38.06001812 124.25088913 43.06689453 128.4519043 C47.51636673 132.22023346 47.51636673 132.22023346 48.625 134.4375 C48.75 138 48.75 138 48.625 141.4375 C48.295 141.7675 47.965 142.0975 47.625 142.4375 C46.22989555 160.15955414 47.6229542 177.98091519 54.625 194.4375 C69.289361 193.53023524 82.65951186 189.88639882 96.625 185.4375 C97.79835456 181.105154 97.40441555 177.29584118 96.828125 172.91796875 C94.58537699 152.9201554 94.8347539 139.57858553 106.94580078 122.5234375 C108.70773684 120.33472251 110.60199277 118.38505066 112.625 116.4375 C111.08856148 112.75680113 108.84349055 110.44974796 106 107.6875 C105.18273437 106.88828125 104.36546875 106.0890625 103.5234375 105.265625 C102.89695313 104.66234375 102.27046875 104.0590625 101.625 103.4375 C95.47650146 108.45668248 90.09302075 113.71556548 85.6875 120.359375 C85.0275 121.35453125 84.3675 122.3496875 83.6875 123.375 C83.10097656 124.31214844 82.51445312 125.24929687 81.91015625 126.21484375 C79.15254773 128.8970305 77.42207099 129.41458842 73.64770508 129.65258789 C70.10495138 129.27586297 68.10742222 127.43949131 65.4375 125.1875 C64.61403076 124.50892944 64.61403076 124.50892944 63.77392578 123.81665039 C62.03862271 122.37797399 60.33171475 120.90991213 58.625 119.4375 C57.5131633 118.50218637 56.39989929 117.56856658 55.28515625 116.63671875 C53.09616713 114.80115848 50.91915445 112.95269733 48.75 111.09375 C45.87419041 108.63585363 42.94434117 106.25054799 40 103.875 C35.29213832 100.04730376 30.82572831 96.00351715 26.36328125 91.89453125 C23.74339954 89.54373867 21.05947781 87.32499541 18.3125 85.125 C12.5701666 80.49328982 7.224357 75.48926537 1.84765625 70.4453125 C-1.1883394 67.59955972 -4.28675334 64.83867992 -7.44140625 62.125 C-10.67930632 59.29919631 -13.82428789 56.36966047 -16.98046875 53.453125 C-19.67116897 51.08005212 -19.67116897 51.08005212 -24.375 48.4375 Z M22.625 124.4375 C20.16924425 126.89325575 20.62775475 132.29941814 20.5625 135.5703125 C20.5625 138.52611509 20.59179083 141.48188398 20.625 144.4375 C29.04 148.3975 29.04 148.3975 37.625 152.4375 C39.95483591 147.77782819 39.6934087 142.4159489 38.625 137.4375 C34.31545073 131.80477866 28.72917517 127.94154206 22.625 124.4375 Z " fill="#FFCE41" transform="translate(91.375,32.5625)"/>
</svg>
