<?xml version="1.0" encoding="UTF-8"?>
<svg version="1.1" xmlns="http://www.w3.org/2000/svg" width="250" height="250">
<path d="M0 0 C1.04800781 0.00193359 1.04800781 0.00193359 2.1171875 0.00390625 C6.12308446 0.07193092 9.50571389 0.34313734 13 2.375 C14.109375 4.1875 14.109375 4.1875 14.75 6.375 C14.97171875 7.07625 15.1934375 7.7775 15.421875 8.5 C16.06620028 11.70421218 16.3609693 14.85794073 16.66064453 18.11035156 C17.09193843 22.25946092 17.63792842 26.38909254 18.19140625 30.5234375 C18.30151031 31.34853821 18.41161438 32.17363892 18.52505493 33.02374268 C18.98726842 36.478547 19.45214792 39.93298618 19.91870117 43.38720703 C20.26183362 45.93232372 20.60178984 48.47784961 20.94140625 51.0234375 C21.10075401 52.19221939 21.10075401 52.19221939 21.26332092 53.38461304 C21.71245133 56.76068984 22 59.96142235 22 63.375 C22.65524658 63.48674561 23.31049316 63.59849121 23.9855957 63.71362305 C27.81508894 64.55383502 31.50656516 65.74514773 35.23046875 66.95703125 C36.02093094 67.21248215 36.81139313 67.46793304 37.62580872 67.73112488 C39.29632333 68.27190047 40.96637358 68.81411234 42.63598633 69.35766602 C45.16015306 70.1786059 47.68638845 70.99292095 50.21289062 71.80664062 C72.71098386 79.08598386 72.71098386 79.08598386 76 82.375 C76.125 85 76.125 85 76 87.375 C76.886875 87.4575 77.77375 87.54 78.6875 87.625 C84.58535186 88.47448484 90.4852443 90.13824594 96 92.375 C98.20330432 95.67995647 98.22245774 96.46947288 98.07519531 100.27587891 C98.04145813 101.27608063 98.00772095 102.27628235 97.97296143 103.30679321 C97.92516541 104.39406708 97.87736938 105.48134094 97.828125 106.6015625 C97.78564636 107.73661224 97.74316772 108.87166199 97.69940186 110.04110718 C97.60667187 112.46070654 97.50879934 114.88011333 97.40625 117.29931641 C97.25384944 120.90882846 97.11759144 124.51864128 96.984375 128.12890625 C96.53164022 139.87799988 95.92578427 151.61058183 95.046875 163.3359375 C94.97317688 164.37674469 94.89947876 165.41755188 94.82354736 166.48989868 C94.70738068 167.93808487 94.70738068 167.93808487 94.58886719 169.41552734 C94.49082794 170.67639664 94.49082794 170.67639664 94.39080811 171.96273804 C93.48498701 177.55391628 90.98729075 181.38770925 87 185.375 C82.2510693 186.56251332 77.46373763 186.52902261 72.59545898 186.53613281 C71.77356079 186.54109772 70.9516626 186.54606262 70.1048584 186.55117798 C67.40192818 186.56571418 64.69905653 186.57258517 61.99609375 186.578125 C60.1109263 186.58388087 58.22575887 186.58963855 56.34059143 186.59539795 C52.39575937 186.60588177 48.45094754 186.61174242 44.50610352 186.61523438 C39.45317014 186.62073178 34.4005045 186.64479736 29.3476553 186.67320633 C25.45717075 186.69182763 21.56675101 186.69703791 17.67622566 186.69857025 C15.81310617 186.70159544 13.94998779 186.70961944 12.08691216 186.72275543 C9.48278172 186.73981498 6.87931016 186.7379367 4.27514648 186.73144531 C3.50773636 186.7406601 2.74032623 186.74987488 1.94966125 186.7593689 C-2.97768574 186.72090389 -6.45037985 185.92462015 -10 182.375 C-10.32272768 177.77613062 -10.21430985 174.45508896 -8.4375 170.1875 C-7.05166303 166.82471076 -6.66798476 164.89532599 -8 161.375 C-8.97691857 159.69470006 -9.97388051 158.02571396 -11 156.375 C-11 155.715 -11 155.055 -11 154.375 C-11.804375 154.22804687 -11.804375 154.22804687 -12.625 154.078125 C-15.42421589 153.54406407 -18.21097195 152.96006429 -21 152.375 C-21.6585498 152.24609375 -22.31709961 152.1171875 -22.99560547 151.984375 C-25.14911021 151.55693919 -27.29264736 151.09376191 -29.4375 150.625 C-30.13552734 150.49254883 -30.83355469 150.36009766 -31.55273438 150.22363281 C-35.19916559 149.3910251 -36.74287848 148.75264723 -38.875 145.62109375 C-39.96056911 142.48877456 -40.81155566 139.41538115 -41.5625 136.1875 C-44.31429023 126.11551781 -49.24665697 115.55640428 -55.63500977 107.2487793 C-57.2890318 104.97823394 -57.28586776 104.04635087 -56.875 101.3125 C-56.78992187 100.64089844 -56.70484375 99.96929687 -56.6171875 99.27734375 C-55.83544204 96.86778654 -54.99337468 95.93903244 -53 94.375 C-50.51171875 93.171875 -50.51171875 93.171875 -47.6875 92.125 C-46.76324219 91.76921875 -45.83898437 91.4134375 -44.88671875 91.046875 C-41.42117594 90.24028046 -39.40840903 90.3413387 -36 91.375 C-33.21875 93.484375 -33.21875 93.484375 -30.5 96.125 C-29.54738281 97.02347656 -28.59476563 97.92195313 -27.61328125 98.84765625 C-26.12536556 100.28664198 -24.64101609 101.72939137 -23.16796875 103.18359375 C-21.5717142 104.74218331 -21.5717142 104.74218331 -19 106.375 C-15.87250856 106.04233927 -15.87250856 106.04233927 -13 105.375 C-13.14219971 104.46395508 -13.28439941 103.55291016 -13.4309082 102.61425781 C-15.2342989 90.00037085 -15.27210235 77.47041882 -15.20581055 64.74755859 C-15.18760329 61.14543492 -15.1853014 57.54357115 -15.18554688 53.94140625 C-15.16937591 43.16581148 -15.05206278 32.40565936 -14.55078125 21.640625 C-14.4930378 20.3989859 -14.4930378 20.3989859 -14.43412781 19.13226318 C-13.70041966 5.21603422 -13.70041966 5.21603422 -10.9375 1.8984375 C-7.23034002 -0.02415877 -4.07287904 -0.1427762 0 0 Z M-3 11.375 C-6.381853 39.4813245 -9.74931792 75.78383621 -2.4375 103.5078125 C-1.87339264 105.91534213 -1.90501426 108.15608386 -1.9375 110.625 C-1.94652344 111.51703125 -1.95554688 112.4090625 -1.96484375 113.328125 C-1.97644531 114.00359375 -1.98804688 114.6790625 -2 115.375 C-20.13090091 118.58107394 -20.13090091 118.58107394 -26.984375 114.02734375 C-31.1575301 110.88897813 -35.25374947 107.49729953 -38.578125 103.45703125 C-40.06304531 102.06752668 -40.06304531 102.06752668 -42.6875 102.6875 C-43.450625 102.914375 -44.21375 103.14125 -45 103.375 C-44.49210937 104.22320312 -43.98421875 105.07140625 -43.4609375 105.9453125 C-31.61307023 126.0219886 -31.61307023 126.0219886 -30.578125 135.05859375 C-29.36540192 138.50025415 -29.36540192 138.50025415 -26.65966797 139.50268555 C-23.50167037 140.47359685 -20.34643801 141.26666452 -17.125 142 C-5.73874508 144.69008596 -5.73874508 144.69008596 -2.48046875 147.7109375 C-1.99191406 148.59007812 -1.50335938 149.46921875 -1 150.375 C-0.35417969 151.344375 0.29164062 152.31375 0.95703125 153.3125 C1.87548828 154.8284375 1.87548828 154.8284375 2.8125 156.375 C3.43769531 157.385625 4.06289062 158.39625 4.70703125 159.4375 C6.46206958 163.42477742 5.73556308 165.4389065 4.24609375 169.359375 C3.97925781 169.94203125 3.71242187 170.5246875 3.4375 171.125 C1.93258233 173.93513635 1.93258233 173.93513635 2 175.375 C9.6965034 175.42655435 17.39296086 175.46108327 25.08959961 175.48486328 C27.6970384 175.4947976 30.30446644 175.50834962 32.91186523 175.52587891 C57.53540055 175.86216198 57.53540055 175.86216198 82 173.375 C84.21045623 171.16454377 83.71908901 166.26361171 84 163.1875 C84.08685059 162.24205322 84.17370117 161.29660645 84.26318359 160.32250977 C85.99300396 140.67947461 86.14081033 121.08411325 86 101.375 C82.30919526 99.97011304 78.64603721 98.58063089 74.8828125 97.3828125 C73.97273438 97.09148437 73.06265625 96.80015625 72.125 96.5 C71.19945312 96.21382813 70.27390625 95.92765625 69.3203125 95.6328125 C68.55460937 95.21773438 67.78890625 94.80265625 67 94.375 C66.69316284 93.20275879 66.69316284 93.20275879 66.38012695 92.00683594 C64.23105521 87.90865916 60.84472602 87.37744394 56.59765625 86.0078125 C55.76415146 85.72396698 54.93064667 85.44012146 54.07188416 85.14767456 C52.31051168 84.55218906 50.54595008 83.96606607 48.77856445 83.38867188 C46.06918307 82.50218664 43.3713963 81.58579516 40.67382812 80.6640625 C38.96153658 80.08935784 37.2486637 79.5163817 35.53515625 78.9453125 C34.7257106 78.67147736 33.91626495 78.39764221 33.08229065 78.11550903 C28.58034673 76.56625931 28.58034673 76.56625931 24 77.375 C24.07424442 81.31470234 24.48607346 84.71720389 26 88.375 C29.41834604 91.01679026 33.15564884 92.16208706 37.25 93.4375 C38.28769531 93.80037109 39.32539063 94.16324219 40.39453125 94.53710938 C43.25068945 95.52746308 46.1188977 96.46028762 49 97.375 C50.84851563 97.99181641 50.84851563 97.99181641 52.734375 98.62109375 C53.48203125 98.86988281 54.2296875 99.11867188 55 99.375 C55 100.365 55 101.355 55 102.375 C51.02815387 103.41145056 48.0868425 103.2557826 44.0703125 102.484375 C42.38228516 102.16146484 42.38228516 102.16146484 40.66015625 101.83203125 C39.49355469 101.59871094 38.32695312 101.36539063 37.125 101.125 C35.96613281 100.90714844 34.80726563 100.68929687 33.61328125 100.46484375 C30.39003301 99.83492895 27.19910132 99.1163171 24 98.375 C23.25016846 98.2610791 22.50033691 98.1471582 21.7277832 98.02978516 C19.87109375 97.5859375 19.87109375 97.5859375 17 95.375 C15.2766251 90.7985576 14.63324188 86.06703538 13.9375 81.25 C13.70139433 79.77714051 13.46347093 78.30457145 13.22387695 76.83227539 C10.66482521 60.67978982 8.79224825 44.40884059 6.91577148 28.16552734 C6.79461975 27.12492661 6.67346802 26.08432587 6.54864502 25.01219177 C6.32001446 23.03875065 6.09528832 21.06485229 5.87493896 19.09046936 C5.7740094 18.21813156 5.67307983 17.34579376 5.5690918 16.44702148 C5.48282028 15.68131332 5.39654877 14.91560516 5.30766296 14.12669373 C5.16882506 12.35245033 5.16882506 12.35245033 4 11.375 C1.66702567 11.33407063 -0.66705225 11.33258277 -3 11.375 Z " fill="#FFCE41" transform="translate(95,45.625)"/>
<path d="M0 0 C15.60375803 -0.38767101 29.87848169 1.98287263 41.8984375 12.46875 C43.51956336 14.01364737 45.1247991 15.57545213 46.7109375 17.15625 C47.37351562 17.795625 48.03609375 18.435 48.71875 19.09375 C56.83498908 27.52620619 60.16207443 38.67420714 59.9765625 50.19140625 C59.06985807 60.3118278 54.16451582 67.49461438 46.7109375 74.15625 C41.48433619 78.07620098 36.38240433 81.29240238 29.7109375 81.15625 C27.7109375 80.03125 27.7109375 80.03125 26.7109375 78.15625 C26.8828125 75.7265625 26.8828125 75.7265625 27.7109375 73.15625 C29.6015625 71.53125 29.6015625 71.53125 31.9609375 70.15625 C38.69183041 65.97477612 44.14263599 60.86115454 46.7109375 53.15625 C47.78420356 42.58194012 44.98967946 34.1850273 38.32421875 25.96484375 C31.2019865 17.98035578 21.61537065 12.79517857 10.78173828 12.01782227 C-7.71117663 11.14191444 -7.71117663 11.14191444 -24.0390625 18.48828125 C-31.52116116 27.36028366 -34.75349257 40.28557442 -34.2890625 51.71875 C-33.0920239 62.17708723 -28.91597723 70.13302086 -22.05859375 78 C-20.40212968 80.01847278 -19.23652902 81.72993361 -18.2890625 84.15625 C-18.6640625 86.90625 -18.6640625 86.90625 -19.2890625 89.15625 C-22.39462578 89.69972357 -24.51121899 89.64181292 -27.22265625 87.94921875 C-36.12010518 80.54334996 -43.57255082 69.78318758 -45.2890625 58.15625 C-46.34397562 41.34589912 -44.50437087 25.41332333 -33.7890625 11.65625 C-24.886461 2.7536485 -12.14684925 0.57704747 0 0 Z " fill="#FFCE41" transform="translate(92.2890625,15.84375)"/>
<path d="M0 0 C5.90193702 4.51324596 8.96340401 11.54492547 11.5625 18.3125 C11.82611328 18.99376953 12.08972656 19.67503906 12.36132812 20.37695312 C13.72326774 24.21377471 14.61699294 27.15701679 13 31 C9.52245466 33.31148885 5.86568227 33.57253172 1.78515625 34.0703125 C1.09240097 34.15626678 0.39964569 34.24222107 -0.31410217 34.33078003 C-1.77530185 34.5106241 -3.23694303 34.6869123 -4.69897461 34.85986328 C-6.92732765 35.12379516 -9.15409219 35.39881893 -11.38085938 35.67578125 C-23.19633872 37.11838189 -23.19633872 37.11838189 -28 37 C-29.2309329 34.10660026 -29.00248251 33.00665765 -27.8828125 30.00390625 C-11.79187082 -1.49858179 -11.79187082 -1.49858179 0 0 Z " fill="#FFCE41" transform="translate(192,15)"/>
<path d="M0 0 C2.74819835 3.20623141 2.49175402 5.86572007 2.3046875 9.9921875 C1.49666299 16.00095156 0.2768538 23.13239476 -3.546875 27.99609375 C-6.54157889 30.25694693 -9.52291222 30.54189896 -13.125 30.1875 C-23.01304363 26.95269715 -30.59884416 20.08557377 -38.125 13.1875 C-39.04539063 12.35798828 -39.04539063 12.35798828 -39.984375 11.51171875 C-41.125 10.1875 -41.125 10.1875 -41.3125 7.6875 C-40.125 5.1875 -40.125 5.1875 -36.63671875 3.63671875 C-32.08062646 2.04902814 -27.51348478 1.19997589 -22.75 0.5 C-21.49872314 0.31219971 -21.49872314 0.31219971 -20.22216797 0.12060547 C-13.31851565 -0.86909308 -6.83073626 -1.77599143 0 0 Z " fill="#FFCE41" transform="translate(199.125,85.8125)"/>
<path d="M0 0 C3.12297576 0.77970156 4.77951461 1.32309911 6.92578125 3.73046875 C7.49609375 6.515625 7.49609375 6.515625 6.92578125 9.73046875 C5.28400811 12.11133193 3.74253109 14.06885568 1.80078125 16.16796875 C0.78359525 17.30575816 -0.233334 18.44377716 -1.25 19.58203125 C-1.74064941 20.1224707 -2.23129883 20.66291016 -2.73681641 21.21972656 C-4.38875957 23.08577701 -5.87772908 25.06064989 -7.38671875 27.04296875 C-10.07421875 29.73046875 -10.07421875 29.73046875 -13.13671875 30.54296875 C-18.19112145 29.14494247 -20.50931563 24.68902483 -23.05859375 20.36328125 C-29.30876364 7.94590833 -29.30876364 7.94590833 -29.07421875 1.73046875 C-24.66516853 -5.14573954 -6.79661982 -0.91719091 0 0 Z " fill="#FFCE41" transform="translate(48.07421875,99.26953125)"/>
<path d="M0 0 C2.85811035 0.60170744 3.49441845 1.31001686 5.375 3.5 C6.3203106 5.07551767 7.2106848 6.68453227 8.0625 8.3125 C9.82166593 11.64029247 11.61108225 14.9301642 13.54296875 18.16015625 C14.09174683 19.08574341 14.09174683 19.08574341 14.65161133 20.0300293 C15.37096232 21.23832791 16.09839624 22.44185943 16.8347168 23.63989258 C18.85259745 27.05813615 19.91124946 29.51436209 19.375 33.5 C19.045 33.83 18.715 34.16 18.375 34.5 C11.68491068 34.28761621 5.49944971 32.90999992 -0.9375 31.1875 C-1.71407959 30.98688965 -2.49065918 30.7862793 -3.29077148 30.57958984 C-7.81111224 29.31875806 -11.34501457 28.04030173 -14.625 24.5 C-15.76678744 19.12524451 -13.7597164 14.16817638 -10.875 9.6875 C-4.28434181 0.81606511 -4.28434181 0.81606511 0 0 Z " fill="#FFCE41" transform="translate(23.625,19.5)"/>
</svg>
